<svg xmlns="http://www.w3.org/2000/svg" xmlns:xlink="http://www.w3.org/1999/xlink" width="572" height="339.566" viewBox="0 0 572 339.566">
  <defs>
    <clipPath id="clip-path">
      <rect id="Rectangle_151812" data-name="Rectangle 151812" width="572" height="339.566" fill="none"/>
    </clipPath>
    <clipPath id="clip-path-4">
      <rect id="Rectangle_151805" data-name="Rectangle 151805" width="18.978" height="25.625" fill="none"/>
    </clipPath>
    <clipPath id="clip-path-5">
      <rect id="Rectangle_151806" data-name="Rectangle 151806" width="40.997" height="17.693" fill="none"/>
    </clipPath>
    <clipPath id="clip-path-6">
      <rect id="Rectangle_151807" data-name="Rectangle 151807" width="187.848" height="119.379" fill="none"/>
    </clipPath>
    <clipPath id="clip-path-7">
      <rect id="Rectangle_151808" data-name="Rectangle 151808" width="62.288" height="53.942" fill="none"/>
    </clipPath>
  </defs>
  <g id="Group_172848" data-name="Group 172848" opacity="0.8">
    <g id="Group_172847" data-name="Group 172847" clip-path="url(#clip-path)">
      <g id="Group_172828" data-name="Group 172828">
        <g id="Group_172827" data-name="Group 172827" clip-path="url(#clip-path)">
          <path id="Path_44567" data-name="Path 44567" d="M618.575,190.6H567.726a6.362,6.362,0,0,1-6.362-6.362v-70.38a6.362,6.362,0,0,1,6.362-6.362h32.249l24.963,25.729V184.24a6.362,6.362,0,0,1-6.362,6.362" transform="translate(-89.67 -17.171)" fill="#ebebeb"/>
          <path id="Path_44568" data-name="Path 44568" d="M607.314,107.5V127.3a5.918,5.918,0,0,0,5.917,5.918l19.045,0Z" transform="translate(-97.01 -17.171)" fill="#f5f5f5"/>
          <path id="Path_44569" data-name="Path 44569" d="M607.623,133.138s-.25,4.8,5.219,6.383a6.127,6.127,0,0,0,.626.141c2.486.445,18.858,3.357,18.858,2.98v-5.322H613.279s-4.755-.163-5.657-4.183" transform="translate(-97.059 -21.267)" fill="#e0e0e0"/>
          <path id="Path_44570" data-name="Path 44570" d="M618.533,190.56c0-.03.381.008,1.1-.129a6.369,6.369,0,0,0,2.885-1.345,6.286,6.286,0,0,0,2.277-4.487c.033-2.052-.005-4.433,0-7.092-.018-10.657-.045-25.9-.077-44.323l.052.127L599.782,107.6l.15.064-18.608.007-9.734,0H569.12a16.264,16.264,0,0,0-2.443.089,6.148,6.148,0,0,0-3.99,2.489,6.059,6.059,0,0,0-1.125,3.127c-.045,1.128-.013,2.307-.023,3.452q0,3.456,0,6.865,0,6.816,0,13.422c0,8.8-.008,17.287-.013,25.373q-.005,6.064-.009,11.816,0,2.872-.005,5.66,0,1.394,0,2.764a14.6,14.6,0,0,0,.118,2.676,6.2,6.2,0,0,0,2.879,4.09,6.13,6.13,0,0,0,2.346.829,23.568,23.568,0,0,0,2.5.066l9.6.014,28.965.07,7.874.041,2.048.021c.461.008.7.023.7.023s-.236.015-.7.023l-2.048.022-7.874.04-28.965.07-9.6.014a23.5,23.5,0,0,1-2.549-.063,6.485,6.485,0,0,1-2.48-.869,6.559,6.559,0,0,1-3.054-4.32,14.878,14.878,0,0,1-.129-2.747q0-1.371,0-2.764,0-2.787-.005-5.66-.005-5.746-.009-11.816c0-8.086-.008-16.573-.013-25.373q0-6.6,0-13.422,0-3.408,0-6.865c.01-1.159-.024-2.293.023-3.482A6.507,6.507,0,0,1,562.332,110a6.584,6.584,0,0,1,4.275-2.665,16.625,16.625,0,0,1,2.513-.1h2.469l9.734,0,18.608.007h.089l.061.064,24.944,25.747.051.054v.074c-.032,18.419-.059,33.666-.077,44.323-.017,2.663.005,5.03-.045,7.1a6.394,6.394,0,0,1-2.369,4.563,6.309,6.309,0,0,1-2.945,1.315,4.768,4.768,0,0,1-.828.074c-.187.005-.281,0-.281,0" transform="translate(-89.628 -17.129)" fill="#e0e0e0"/>
          <path id="Path_44571" data-name="Path 44571" d="M632.235,133.225a2.1,2.1,0,0,1-.489.044l-1.4.041-5.159.069-7.651.045-4.524,0a6.139,6.139,0,0,1-5.671-4.28,7.1,7.1,0,0,1-.28-2.429c.005-1.565.009-3.077.013-4.519.018-2.866.033-5.456.046-7.652.029-2.133.053-3.881.07-5.159.017-.57.03-1.034.041-1.4a2.056,2.056,0,0,1,.045-.489,2.089,2.089,0,0,1,.044.489c.011.369.024.833.041,1.4.018,1.278.04,3.026.07,5.159.013,2.2.029,4.786.047,7.652,0,1.442.008,2.954.013,4.519a5.9,5.9,0,0,0,1.427,4.345A5.707,5.707,0,0,0,613.02,133l4.511.022,7.651.049,5.159.07,1.4.041a2.113,2.113,0,0,1,.489.045" transform="translate(-96.968 -17.171)" fill="#e0e0e0"/>
          <path id="Path_44572" data-name="Path 44572" d="M601.071,128.49c0,.121-6.006.219-13.413.219s-13.415-.1-13.415-.219,6-.218,13.415-.218,13.413.1,13.413.218" transform="translate(-91.728 -20.49)" fill="#e0e0e0"/>
          <path id="Path_44573" data-name="Path 44573" d="M613.8,140.249c0,.121-8.855.218-19.777.218s-19.779-.1-19.779-.218,8.854-.218,19.779-.218,19.777.1,19.777.218" transform="translate(-91.728 -22.368)" fill="#e0e0e0"/>
          <path id="Path_44574" data-name="Path 44574" d="M613.8,152.009c0,.121-8.855.218-19.777.218s-19.779-.1-19.779-.218,8.854-.218,19.779-.218,19.777.1,19.777.218" transform="translate(-91.728 -24.247)" fill="#e0e0e0"/>
          <path id="Path_44575" data-name="Path 44575" d="M613.8,163.769c0,.121-8.855.218-19.777.218s-19.779-.1-19.779-.218,8.854-.218,19.779-.218,19.777.1,19.777.218" transform="translate(-91.728 -26.125)" fill="#e0e0e0"/>
          <path id="Path_44576" data-name="Path 44576" d="M613.8,175.528c0,.121-8.855.218-19.777.218s-19.779-.1-19.779-.218,8.854-.218,19.779-.218,19.777.1,19.777.218" transform="translate(-91.728 -28.003)" fill="#e0e0e0"/>
          <path id="Path_44577" data-name="Path 44577" d="M613.8,190.032c0,.121-8.855.218-19.777.218s-19.779-.1-19.779-.218,8.854-.218,19.779-.218,19.777.1,19.777.218" transform="translate(-91.728 -30.32)" fill="#e0e0e0"/>
          <path id="Path_44578" data-name="Path 44578" d="M587.436,186.385H551.342a3.547,3.547,0,0,1-3.548-3.547V170.527a3.547,3.547,0,0,1,3.548-3.548h36.094a3.547,3.547,0,0,1,3.547,3.547v12.312a3.547,3.547,0,0,1-3.547,3.548" transform="translate(-87.503 -26.673)" fill="#e0e0e0"/>
          <path id="Path_44579" data-name="Path 44579" d="M553.749,174.511h3.331c2.4,0,4.043,1.445,4.043,3.666s-1.645,3.666-4.043,3.666h-3.331ZM557,180.45a2.277,2.277,0,1,0,0-4.546h-1.55v4.546Z" transform="translate(-88.454 -27.876)" fill="#fff"/>
          <path id="Path_44580" data-name="Path 44580" d="M563.495,178.153a4.018,4.018,0,1,1,4.012,3.792,3.795,3.795,0,0,1-4.012-3.792m6.306,0a2.295,2.295,0,1,0-2.294,2.347,2.237,2.237,0,0,0,2.294-2.347" transform="translate(-90.011 -27.852)" fill="#fff"/>
          <path id="Path_44581" data-name="Path 44581" d="M574.015,178.153a4.037,4.037,0,0,1,7-2.493l-1.089,1.006a2.359,2.359,0,0,0-1.844-.859,2.346,2.346,0,1,0,0,4.693,2.338,2.338,0,0,0,1.844-.87l1.089,1a4.03,4.03,0,0,1-7-2.482" transform="translate(-91.691 -27.852)" fill="#fff"/>
          <path id="Path_44582" data-name="Path 44582" d="M587.985,181.843l-1.77-2.545-1.738,2.545h-1.949l2.713-3.73-2.577-3.6h1.928l1.686,2.379,1.655-2.379h1.833l-2.555,3.541,2.733,3.792Z" transform="translate(-93.051 -27.876)" fill="#fff"/>
          <path id="Path_44583" data-name="Path 44583" d="M534.956,314.144l-38.5,67.341-76.181,1.1a4.61,4.61,0,0,0-4.537,4.358l77.472.218,2.912-.1,97,.192,19.6-33.806,25.041-35.888a3.541,3.541,0,0,0-2.918-5.568l-96.829.37a3.54,3.54,0,0,0-3.061,1.783" transform="translate(-66.408 -49.836)" fill="#ebebeb"/>
          <path id="Path_44584" data-name="Path 44584" d="M653.862,314.934a1.685,1.685,0,0,1-.464.049l-1.363.048-5.237.091-19.263.152-63.553.141h-4.627a3.815,3.815,0,0,0-3.527,1.665q-2.19,3.949-4.313,7.776l-8.178,14.76c-5.221,9.382-9.928,17.837-13.895,24.966-3.957,7.036-7.172,12.754-9.44,16.789l-2.609,4.541-.7,1.169a1.684,1.684,0,0,1-.266.381,1.666,1.666,0,0,1,.182-.43c.164-.324.367-.724.617-1.216l2.451-4.63c2.206-4.071,5.33-9.84,9.175-16.939,3.916-7.157,8.561-15.646,13.716-25.066l8.129-14.787,4.335-7.841a4.788,4.788,0,0,1,4.325-2.1h4.627l63.553.141,19.263.153,5.237.09,1.363.047a1.7,1.7,0,0,1,.464.05" transform="translate(-82.492 -50.227)" fill="#e0e0e0"/>
          <path id="Path_44585" data-name="Path 44585" d="M598.5,355a4.092,4.092,0,1,0,6.115-.723A4.374,4.374,0,0,0,598.5,355" transform="translate(-95.393 -56.44)" fill="#fff"/>
          <path id="Path_44586" data-name="Path 44586" d="M14.024,316.063v40.272H7.3v4.37h6.724v26.954H139.711V363.133H130.4v-5.342h9.31v-8.013h4.137v-3.643h-4.913V316.063Z" transform="translate(-1.166 -50.487)" fill="#f5f5f5"/>
          <path id="Path_44587" data-name="Path 44587" d="M125.161,316.18v71.03h33.377V362.685h-9.31v-4.894l9.31.166v-8.013l4.218.005-.081-4.141-4.913-.121V316.063Z" transform="translate(-19.993 -50.487)" fill="#e0e0e0"/>
          <path id="Path_44588" data-name="Path 44588" d="M108.679,368.419c0,.247-22.743.446-50.792.446s-50.8-.2-50.8-.446,22.739-.446,50.8-.446,50.792.2,50.792.446" transform="translate(-1.132 -58.779)" fill="#e0e0e0"/>
          <path id="Path_44589" data-name="Path 44589" d="M108.679,363.55c0,.247-22.743.446-50.792.446s-50.8-.2-50.8-.446,22.739-.446,50.8-.446,50.792.2,50.792.446" transform="translate(-1.132 -58.001)" fill="#e0e0e0"/>
          <path id="Path_44590" data-name="Path 44590" d="M116.444,350.448c0,.247-22.743.446-50.792.446s-50.8-.2-50.8-.446S37.592,350,65.651,350s50.792.2,50.792.446" transform="translate(-2.373 -55.908)" fill="#e0e0e0"/>
          <path id="Path_44591" data-name="Path 44591" d="M117.19,386.152c0,.247-22.743.446-50.792.446s-50.8-.2-50.8-.446,22.739-.446,50.8-.446,50.792.2,50.792.446" transform="translate(-2.492 -61.611)" fill="#e0e0e0"/>
          <path id="Path_44592" data-name="Path 44592" d="M503.819,96.617H454.146a6.214,6.214,0,0,1-6.215-6.215V21.648a6.215,6.215,0,0,1,6.215-6.215h31.5l24.386,25.134V90.4a6.216,6.216,0,0,1-6.215,6.215" transform="translate(-71.551 -2.465)" fill="#ebebeb"/>
          <path id="Path_44593" data-name="Path 44593" d="M492.819,15.433v19.35a5.781,5.781,0,0,0,5.78,5.781l18.606,0Z" transform="translate(-78.721 -2.465)" fill="#f5f5f5"/>
          <path id="Path_44594" data-name="Path 44594" d="M493.121,40.482s-.245,4.693,5.1,6.236a5.9,5.9,0,0,0,.612.138c2.429.434,18.422,3.28,18.422,2.912v-5.2H498.646s-4.645-.16-5.526-4.086" transform="translate(-78.769 -6.466)" fill="#e0e0e0"/>
          <path id="Path_44595" data-name="Path 44595" d="M503.777,96.575c0-.029.373.008,1.073-.128a6.209,6.209,0,0,0,2.817-1.313,6.141,6.141,0,0,0,2.224-4.383c.031-2-.006-4.331,0-6.928-.019-10.411-.045-25.3-.078-43.3l.052.127L485.456,15.536l.15.064-18.178.007-9.508,0h-2.413a15.814,15.814,0,0,0-2.384.087,6,6,0,0,0-3.9,2.428,5.919,5.919,0,0,0-1.1,3.054c-.044,1.1-.013,2.253-.023,3.371q0,3.377,0,6.706,0,6.659,0,13.111c0,8.6-.008,16.888-.013,24.787q0,5.924-.009,11.542,0,2.807-.005,5.53,0,1.361,0,2.7a14.215,14.215,0,0,0,.114,2.613,6.044,6.044,0,0,0,5.1,4.8,22.906,22.906,0,0,0,2.443.065l9.376.014,28.294.07,7.693.041,2,.021c.45.008.681.023.681.023s-.231.015-.681.023l-2,.022-7.693.04-28.294.07-9.376.014a23.069,23.069,0,0,1-2.49-.061,6.4,6.4,0,0,1-5.41-5.072,14.572,14.572,0,0,1-.127-2.684q0-1.34,0-2.7,0-2.722-.005-5.53,0-5.613-.009-11.542c0-7.9-.008-16.191-.013-24.787q0-6.447,0-13.111,0-3.33,0-6.706c.01-1.132-.023-2.24.023-3.4a6.354,6.354,0,0,1,1.179-3.276,6.436,6.436,0,0,1,4.179-2.606,16.3,16.3,0,0,1,2.455-.093h2.413l9.508,0,18.178.007h.089l.062.064L510.124,40.4l.051.054v.074c-.032,17.993-.059,32.887-.077,43.3-.017,2.6,0,4.913-.044,6.938a6.251,6.251,0,0,1-2.315,4.458,6.16,6.16,0,0,1-2.878,1.283,4.616,4.616,0,0,1-.809.073c-.181,0-.274,0-.274,0" transform="translate(-71.509 -2.423)" fill="#e0e0e0"/>
          <path id="Path_44596" data-name="Path 44596" d="M517.163,40.566a1.95,1.95,0,0,1-.478.044l-1.37.041-5.04.069-7.474.045-4.42,0a6.006,6.006,0,0,1-5.545-4.185,6.952,6.952,0,0,1-.273-2.375c.005-1.529.009-3.006.013-4.415.017-2.8.033-5.328.046-7.475.029-2.082.053-3.789.07-5.04.017-.555.03-1.008.041-1.37a1.968,1.968,0,0,1,.045-.478,2.062,2.062,0,0,1,.044.478c.011.361.024.814.041,1.37.017,1.251.04,2.958.07,5.04.013,2.147.029,4.676.046,7.475,0,1.409.008,2.885.013,4.415a5.746,5.746,0,0,0,1.393,4.241,5.565,5.565,0,0,0,4.007,1.89l4.408.023,7.474.048,5.04.07,1.37.042a2,2,0,0,1,.478.044" transform="translate(-78.68 -2.465)" fill="#e0e0e0"/>
          <path id="Path_44597" data-name="Path 44597" d="M486.72,35.94c0,.121-5.868.218-13.1.218s-13.1-.1-13.1-.218,5.866-.218,13.1-.218,13.1.1,13.1.218" transform="translate(-73.561 -5.706)" fill="#e0e0e0"/>
          <path id="Path_44598" data-name="Path 44598" d="M499.154,47.427c0,.121-8.651.218-19.32.218s-19.322-.1-19.322-.218,8.65-.218,19.322-.218,19.32.1,19.32.218" transform="translate(-73.561 -7.541)" fill="#e0e0e0"/>
          <path id="Path_44599" data-name="Path 44599" d="M499.154,58.915c0,.121-8.651.218-19.32.218s-19.322-.1-19.322-.218,8.65-.218,19.322-.218,19.32.1,19.32.218" transform="translate(-73.561 -9.376)" fill="#e0e0e0"/>
          <path id="Path_44600" data-name="Path 44600" d="M499.154,70.4c0,.121-8.651.218-19.32.218s-19.322-.1-19.322-.218,8.65-.218,19.322-.218,19.32.1,19.32.218" transform="translate(-73.561 -11.211)" fill="#e0e0e0"/>
          <path id="Path_44601" data-name="Path 44601" d="M499.154,81.891c0,.121-8.651.218-19.32.218s-19.322-.1-19.322-.218,8.65-.218,19.322-.218,19.32.1,19.32.218" transform="translate(-73.561 -13.046)" fill="#e0e0e0"/>
          <path id="Path_44602" data-name="Path 44602" d="M499.154,96.059c0,.121-8.651.218-19.32.218s-19.322-.1-19.322-.218,8.65-.218,19.322-.218,19.32.1,19.32.218" transform="translate(-73.561 -15.309)" fill="#e0e0e0"/>
          <path id="Path_44603" data-name="Path 44603" d="M473.319,92.5h-35.1a3.547,3.547,0,0,1-3.547-3.547V77.088a3.547,3.547,0,0,1,3.547-3.548h35.1a3.547,3.547,0,0,1,3.547,3.547V88.95a3.547,3.547,0,0,1-3.547,3.548" transform="translate(-69.434 -11.747)" fill="#e0e0e0"/>
          <path id="Path_44604" data-name="Path 44604" d="M453.125,83.5c0,1.6-1.2,2.589-3.11,2.589h-1.443v1.975h-1.658V80.9h3.1c1.913,0,3.11.992,3.11,2.6m-1.677,0c0-.787-.512-1.248-1.525-1.248h-1.35v2.485h1.35c1.013,0,1.525-.46,1.525-1.238" transform="translate(-71.389 -12.923)" fill="#fff"/>
          <path id="Path_44605" data-name="Path 44605" d="M455.706,80.9h3.254c2.343,0,3.949,1.412,3.949,3.581s-1.607,3.581-3.949,3.581h-3.254Zm3.172,5.8a2.224,2.224,0,1,0,0-4.441h-1.514V86.7Z" transform="translate(-72.793 -12.923)" fill="#fff"/>
          <path id="Path_44606" data-name="Path 44606" d="M467.421,82.229v1.893h3.315v1.33h-3.315v2.608h-1.658V80.9h5.413v1.33Z" transform="translate(-74.399 -12.923)" fill="#fff"/>
          <rect id="Rectangle_151793" data-name="Rectangle 151793" width="26.835" height="46.249" transform="translate(181.381 17.775)" fill="#ebebeb"/>
          <rect id="Rectangle_151794" data-name="Rectangle 151794" width="21.191" height="57.734" transform="translate(106.52 7.025)" fill="#ebebeb"/>
          <path id="Path_44607" data-name="Path 44607" d="M126.478,13.264c0-.178,4.846-.322,10.822-.322s10.823.144,10.823.322-4.845.322-10.823.322-10.822-.145-10.822-.322" transform="translate(-20.203 -2.067)" fill="#fafafa"/>
          <path id="Path_44608" data-name="Path 44608" d="M127.874,16.522c0-.177,4.583-.322,10.235-.322s10.235.145,10.235.322-4.582.322-10.235.322-10.235-.144-10.235-.322" transform="translate(-20.426 -2.588)" fill="#fafafa"/>
          <path id="Path_44609" data-name="Path 44609" d="M138.6,57.029c-.178,0-.322-7.647-.322-17.079s.144-17.082.322-17.082.322,7.646.322,17.082-.144,17.079-.322,17.079" transform="translate(-22.088 -3.653)" fill="#fafafa"/>
          <path id="Path_44610" data-name="Path 44610" d="M126.77,69.747c0-.178,4.645-.322,10.373-.322s10.374.144,10.374.322-4.643.322-10.374.322-10.373-.145-10.373-.322" transform="translate(-20.25 -11.09)" fill="#fafafa"/>
          <path id="Path_44611" data-name="Path 44611" d="M126.77,72.7c0-.178,4.762-.322,10.634-.322s10.635.144,10.635.322-4.761.322-10.635.322-10.634-.144-10.634-.322" transform="translate(-20.25 -11.561)" fill="#fafafa"/>
          <rect id="Rectangle_151795" data-name="Rectangle 151795" width="17.024" height="63.978" transform="translate(127.697 0.781)" fill="#e0e0e0"/>
          <path id="Path_44612" data-name="Path 44612" d="M151.846,35.9a16.529,16.529,0,0,1,2.633,1.823l6.142,4.659,6.134,4.674a16.33,16.33,0,0,1,2.46,2.05,15.269,15.269,0,0,1-2.728-1.682c-1.633-1.113-3.853-2.7-6.256-4.529s-4.526-3.539-6.036-4.816a15.213,15.213,0,0,1-2.35-2.18" transform="translate(-24.255 -5.734)" fill="#fafafa"/>
          <path id="Path_44613" data-name="Path 44613" d="M151.757,23.978c.115-.135,4.016,3.017,8.711,7.041s8.409,7.4,8.293,7.53-4.016-3.017-8.712-7.041-8.408-7.394-8.292-7.53" transform="translate(-24.241 -3.83)" fill="#fafafa"/>
          <rect id="Rectangle_151796" data-name="Rectangle 151796" width="8.142" height="60.949" transform="translate(53.715 3.858)" fill="#ebebeb"/>
          <path id="Path_44614" data-name="Path 44614" d="M64.328,14.4c0,.212,1.708.383,3.814.383s3.816-.171,3.816-.383-1.708-.383-3.816-.383-3.814.171-3.814.383" transform="translate(-10.276 -2.239)" fill="#fafafa"/>
          <path id="Path_44615" data-name="Path 44615" d="M64.13,12.821c0,.212,1.708.383,3.815.383s3.815-.171,3.815-.383-1.708-.383-3.815-.383-3.815.171-3.815.383" transform="translate(-10.244 -1.987)" fill="#fafafa"/>
          <path id="Path_44616" data-name="Path 44616" d="M64.328,71.444c0,.212,1.708.383,3.814.383s3.816-.171,3.816-.383-1.708-.383-3.816-.383-3.814.171-3.814.383" transform="translate(-10.276 -11.351)" fill="#fafafa"/>
          <path id="Path_44617" data-name="Path 44617" d="M64.13,69.865c0,.212,1.708.383,3.815.383s3.815-.171,3.815-.383-1.708-.383-3.815-.383-3.815.171-3.815.383" transform="translate(-10.244 -11.099)" fill="#fafafa"/>
          <path id="Path_44618" data-name="Path 44618" d="M68.992,54.536c.212,0,.383-6.981.383-15.589s-.171-15.591-.383-15.591-.383,6.978-.383,15.591.171,15.589.383,15.589" transform="translate(-10.959 -3.731)" fill="#fafafa"/>
          <rect id="Rectangle_151797" data-name="Rectangle 151797" width="16.284" height="60.949" transform="translate(90.202 3.467)" fill="#e0e0e0"/>
          <path id="Path_44619" data-name="Path 44619" d="M119.315,65.885a1.369,1.369,0,0,0,.19-.331c.116-.224.273-.563.465-1.015a17.715,17.715,0,0,0,1.182-4.132A10.766,10.766,0,0,0,120.2,53.7a8.926,8.926,0,0,0-2.886-3.185,6.7,6.7,0,0,0-4.691-1.108,4.941,4.941,0,0,0-2.425,1.12,3.207,3.207,0,0,0-1.167,2.57,3.7,3.7,0,0,0,1.393,2.584,5.057,5.057,0,0,0,2.777,1.179,7.393,7.393,0,0,0,5.772-2.1,9.277,9.277,0,0,0,2.863-5.857,15.556,15.556,0,0,0-.844-6.8A12.544,12.544,0,0,0,117,36.163a6.552,6.552,0,0,0-3.517-1.385,4.564,4.564,0,0,0-3.658,1.3,2.971,2.971,0,0,0-.837,1.907,3.488,3.488,0,0,0,.561,1.992,5.285,5.285,0,0,0,3.285,2.243,7.669,7.669,0,0,0,7.173-2.4,11.991,11.991,0,0,0,2.793-6.862,16.888,16.888,0,0,0-.7-7.114,9.826,9.826,0,0,0-4.206-5.411,7.208,7.208,0,0,0-6.469-.678,3.4,3.4,0,0,0-2.1,2.486,3.932,3.932,0,0,0,.741,3.07,5.085,5.085,0,0,0,5.486,1.452,9.485,9.485,0,0,0,4.327-3.073,13.831,13.831,0,0,0,3.248-8.357,13.4,13.4,0,0,0-1.5-6.623,13.261,13.261,0,0,0-2.559-3.453,9.854,9.854,0,0,0-.847-.729,1.354,1.354,0,0,0-.315-.215,15.487,15.487,0,0,1,3.455,4.532,13.267,13.267,0,0,1,1.343,6.469,13.441,13.441,0,0,1-3.231,8.024,8.963,8.963,0,0,1-4.084,2.859,4.489,4.489,0,0,1-4.811-1.268,3.292,3.292,0,0,1-.6-2.562,2.728,2.728,0,0,1,1.73-1.994,6.535,6.535,0,0,1,5.836.666,9.119,9.119,0,0,1,3.878,5.043,16.222,16.222,0,0,1,.646,6.8,11.254,11.254,0,0,1-2.611,6.429,6.92,6.92,0,0,1-6.436,2.17,4.53,4.53,0,0,1-2.808-1.9,2.334,2.334,0,0,1,.181-2.972,3.817,3.817,0,0,1,3.052-1.065,5.787,5.787,0,0,1,3.114,1.228A11.845,11.845,0,0,1,120.3,42.34a14.887,14.887,0,0,1,.835,6.479,8.592,8.592,0,0,1-2.622,5.447,6.749,6.749,0,0,1-5.242,1.963c-1.791-.149-3.538-1.514-3.648-3.161a2.628,2.628,0,0,1,.953-2.116,4.41,4.41,0,0,1,2.139-1.01,6.212,6.212,0,0,1,4.335.983,8.5,8.5,0,0,1,2.776,2.982,10.56,10.56,0,0,1,1.032,6.458,19.37,19.37,0,0,1-1.031,4.116c-.334.917-.539,1.389-.51,1.4" transform="translate(-17.409 -0.688)" fill="#fafafa"/>
          <rect id="Rectangle_151798" data-name="Rectangle 151798" width="28.253" height="55.505" transform="translate(61.727 8.935)" fill="#fafafa"/>
          <path id="Path_44620" data-name="Path 44620" d="M74.615,21.537c0,.212,6.122.383,13.674.383s13.675-.171,13.675-.383-6.121-.383-13.675-.383-13.674.171-13.674.383" transform="translate(-11.919 -3.379)" fill="#e0e0e0"/>
          <path id="Path_44621" data-name="Path 44621" d="M74.2,26.544c0,.212,6.044.384,13.5.384s13.5-.172,13.5-.384-6.042-.383-13.5-.383-13.5.171-13.5.383" transform="translate(-11.852 -4.179)" fill="#e0e0e0"/>
          <path id="Path_44622" data-name="Path 44622" d="M73.118,69.151c0,.212,6.365.383,14.215.383s14.216-.171,14.216-.383-6.363-.383-14.216-.383-14.215.171-14.215.383" transform="translate(-11.68 -10.985)" fill="#e0e0e0"/>
          <path id="Path_44623" data-name="Path 44623" d="M73.572,63.265c0,.212,6.2.384,13.849.384s13.85-.172,13.85-.384-6.2-.383-13.85-.383-13.849.171-13.849.383" transform="translate(-11.752 -10.045)" fill="#e0e0e0"/>
          <rect id="Rectangle_151799" data-name="Rectangle 151799" width="16.284" height="60.948" transform="translate(144.708 3.076)" fill="#ebebeb"/>
          <path id="Path_44624" data-name="Path 44624" d="M184.181,65.42a1.4,1.4,0,0,0,.19-.331c.116-.223.273-.563.464-1.015a17.633,17.633,0,0,0,1.182-4.132,10.766,10.766,0,0,0-.951-6.705,8.925,8.925,0,0,0-2.886-3.185,6.7,6.7,0,0,0-4.691-1.108,4.941,4.941,0,0,0-2.425,1.12,3.2,3.2,0,0,0-1.167,2.57,3.69,3.69,0,0,0,1.393,2.583,5.046,5.046,0,0,0,2.777,1.18,7.393,7.393,0,0,0,5.772-2.1,9.277,9.277,0,0,0,2.863-5.857,15.568,15.568,0,0,0-.844-6.8,12.548,12.548,0,0,0-3.993-5.941,6.534,6.534,0,0,0-3.516-1.385,4.564,4.564,0,0,0-3.658,1.3,2.966,2.966,0,0,0-.836,1.907,3.482,3.482,0,0,0,.561,1.992,5.285,5.285,0,0,0,3.285,2.243,7.67,7.67,0,0,0,7.173-2.4,12,12,0,0,0,2.793-6.862,16.9,16.9,0,0,0-.7-7.114,9.829,9.829,0,0,0-4.206-5.411,7.208,7.208,0,0,0-6.469-.678,3.4,3.4,0,0,0-2.1,2.486,3.931,3.931,0,0,0,.741,3.07,5.085,5.085,0,0,0,5.486,1.452,9.479,9.479,0,0,0,4.327-3.073,13.825,13.825,0,0,0,3.247-8.358,13.485,13.485,0,0,0-4.063-10.075,10.014,10.014,0,0,0-.847-.729,1.375,1.375,0,0,0-.315-.215,15.487,15.487,0,0,1,3.455,4.532,13.268,13.268,0,0,1,1.343,6.469,13.446,13.446,0,0,1-3.231,8.024,8.963,8.963,0,0,1-4.084,2.859,4.49,4.49,0,0,1-4.811-1.268,3.294,3.294,0,0,1-.6-2.562,2.728,2.728,0,0,1,1.73-1.994,6.535,6.535,0,0,1,5.836.666,9.119,9.119,0,0,1,3.878,5.043,16.222,16.222,0,0,1,.646,6.8,11.266,11.266,0,0,1-2.611,6.429,6.922,6.922,0,0,1-6.436,2.17,4.53,4.53,0,0,1-2.808-1.9,2.335,2.335,0,0,1,.181-2.973A3.819,3.819,0,0,1,178.3,35.07a5.787,5.787,0,0,1,3.114,1.228,11.841,11.841,0,0,1,3.753,5.578A14.9,14.9,0,0,1,186,48.354a8.592,8.592,0,0,1-2.622,5.447,6.75,6.75,0,0,1-5.242,1.963c-1.791-.149-3.538-1.514-3.648-3.161a2.624,2.624,0,0,1,.953-2.116,4.407,4.407,0,0,1,2.139-1.01,6.214,6.214,0,0,1,4.334.982,8.508,8.508,0,0,1,2.777,2.983,10.559,10.559,0,0,1,1.031,6.458,19.328,19.328,0,0,1-1.03,4.116c-.334.917-.539,1.389-.51,1.4" transform="translate(-27.77 -0.614)" fill="#fafafa"/>
          <rect id="Rectangle_151800" data-name="Rectangle 151800" width="22.628" height="64.024" transform="translate(31.086)" fill="#e0e0e0"/>
          <rect id="Rectangle_151801" data-name="Rectangle 151801" width="21.164" height="56.998" transform="translate(160.992 7.025)" fill="#e0e0e0"/>
          <path id="Path_44625" data-name="Path 44625" d="M217.417,42.142a17.735,17.735,0,0,0,3.365,2.392,11.731,11.731,0,0,0,4.257,1.181,10.991,10.991,0,0,0,5.284-.919c1.786-.763,3.424-1.742,5.082-2.315a8,8,0,0,1,4.613-.422,4.927,4.927,0,0,1,2.673,1.621,1.945,1.945,0,0,1,.523,1.018c-.054.028-.213-.352-.711-.852a5,5,0,0,0-2.586-1.343,7.816,7.816,0,0,0-4.31.534c-1.578.576-3.185,1.558-5.033,2.351a11.22,11.22,0,0,1-5.587.917,11.5,11.5,0,0,1-4.416-1.369,9.735,9.735,0,0,1-2.467-1.89,3.051,3.051,0,0,1-.687-.906" transform="translate(-34.729 -6.69)" fill="#fafafa"/>
          <path id="Path_44626" data-name="Path 44626" d="M216.85,48.855a17.691,17.691,0,0,0,3.365,2.392,11.731,11.731,0,0,0,4.257,1.181,10.99,10.99,0,0,0,5.284-.918c1.786-.764,3.424-1.743,5.082-2.316a7.989,7.989,0,0,1,4.613-.421,4.921,4.921,0,0,1,2.673,1.62,1.945,1.945,0,0,1,.523,1.018c-.054.028-.213-.352-.711-.852a5.01,5.01,0,0,0-2.586-1.343,7.823,7.823,0,0,0-4.31.534c-1.578.577-3.185,1.558-5.033,2.352a11.228,11.228,0,0,1-5.587.916A11.5,11.5,0,0,1,220,51.65a9.716,9.716,0,0,1-2.467-1.89,3.04,3.04,0,0,1-.687-.906" transform="translate(-34.638 -7.762)" fill="#fafafa"/>
          <path id="Path_44627" data-name="Path 44627" d="M217.267,27.117c0-.177,5.827-.322,13.014-.322s13.015.145,13.015.322-5.826.322-13.015.322-13.014-.144-13.014-.322" transform="translate(-34.706 -4.28)" fill="#fafafa"/>
          <path id="Path_44628" data-name="Path 44628" d="M205.093,19.169a3.069,3.069,0,0,0-1.841-.155A2.225,2.225,0,0,0,201.82,20.2a2.048,2.048,0,0,0,2.628,2.528,2.225,2.225,0,0,0,1.131-1.476,3.076,3.076,0,0,0-.226-1.834c.022-.023.209.078.406.394a2.308,2.308,0,0,1,.266,1.527,2.6,2.6,0,0,1-1.316,1.922,2.6,2.6,0,0,1-3.431-3.3,2.607,2.607,0,0,1,1.87-1.389,2.306,2.306,0,0,1,1.535.208c.324.184.432.367.41.39" transform="translate(-32.119 -2.96)" fill="#fafafa"/>
          <path id="Path_44629" data-name="Path 44629" d="M204.167,62.621c-.178,0-.322-7.99-.322-17.844s.144-17.845.322-17.845.322,7.988.322,17.845-.144,17.844-.322,17.844" transform="translate(-32.562 -4.302)" fill="#fafafa"/>
          <rect id="Rectangle_151802" data-name="Rectangle 151802" width="219.04" height="12.503" transform="translate(11.286 63.699)" fill="#ebebeb"/>
          <rect id="Rectangle_151803" data-name="Rectangle 151803" width="19.124" height="12.503" transform="translate(211.202 63.699)" fill="#e0e0e0"/>
        </g>
      </g>
      <g id="Group_172842" data-name="Group 172842">
        <g id="Group_172841" data-name="Group 172841" clip-path="url(#clip-path)">
          <path id="Path_44630" data-name="Path 44630" d="M287.019,66.8l-1.069,86.053c-.182,14.633,2.541,36.167,25.691,35.4,20.035-2.181,25.35-21.147,25.506-34.8.073-6.478.149-11.88.2-12.545,0,0,21.932-1.788,23.783-23.451.895-10.468.981-32.18.833-51.822A40.5,40.5,0,0,0,324.4,25.574l-2.091-.153c-22.654-.33-35.59,18.726-35.293,41.381" transform="translate(-45.675 -4.06)" fill="#ffbe9d"/>
          <path id="Path_44631" data-name="Path 44631" d="M341.868,160.883s-13.726-.2-27.621-10.408c0,0,5.731,16.34,27.508,15.967Z" transform="translate(-50.197 -24.036)" fill="#eb996e"/>
          <path id="Path_44632" data-name="Path 44632" d="M329.806,83.114c-.431.439-2.932-1.575-6.562-1.673-3.624-.151-6.339,1.683-6.72,1.216-.188-.208.26-1.008,1.444-1.839a9.085,9.085,0,0,1,5.4-1.53,8.764,8.764,0,0,1,5.207,1.894c1.091.911,1.447,1.738,1.237,1.933" transform="translate(-50.554 -12.664)" fill="#263238"/>
          <path id="Path_44633" data-name="Path 44633" d="M330.313,92.232a2.936,2.936,0,0,1-3.04,2.748,2.809,2.809,0,0,1-2.826-2.861,2.938,2.938,0,0,1,3.038-2.751,2.811,2.811,0,0,1,2.828,2.864" transform="translate(-51.826 -14.275)" fill="#263238"/>
          <path id="Path_44634" data-name="Path 44634" d="M343.158,108.589c0-.191,2.1-.4,5.483-.581.857-.025,1.675-.135,1.86-.706a4.343,4.343,0,0,0-.384-2.564q-.974-3.175-2.043-6.662c-2.821-9.479-4.8-17.248-4.413-17.359s2.98,7.484,5.8,16.963q1.013,3.5,1.935,6.694a4.948,4.948,0,0,1,.2,3.372,2.141,2.141,0,0,1-1.49,1.141,5.807,5.807,0,0,1-1.46.1c-3.39-.066-5.487-.2-5.485-.393" transform="translate(-54.815 -12.893)" fill="#263238"/>
          <path id="Path_44635" data-name="Path 44635" d="M327.932,67.085c-.35.8-3.256.2-6.736.377-3.482.105-6.339.946-6.742.172-.178-.37.363-1.112,1.546-1.83a10.976,10.976,0,0,1,5.094-1.433,10.861,10.861,0,0,1,5.174,1.015c1.227.62,1.817,1.315,1.664,1.7" transform="translate(-50.225 -10.281)" fill="#263238"/>
          <path id="Path_44636" data-name="Path 44636" d="M368.991,75.072c-.381.656-3.213-.072-6.645-.178-3.432-.168-6.281.334-6.643-.352-.159-.327.408-.916,1.6-1.437a11.987,11.987,0,0,1,5.077-.839,12.376,12.376,0,0,1,5.047,1.243c1.181.616,1.729,1.249,1.561,1.563" transform="translate(-56.815 -11.542)" fill="#263238"/>
          <path id="Path_44637" data-name="Path 44637" d="M285.046,93.726c-.358-.187-14.576-5.494-15.185,9.363s14.433,12.4,14.477,11.98.708-21.343.708-21.343" transform="translate(-43.104 -14.8)" fill="#ffbe9d"/>
          <path id="Path_44638" data-name="Path 44638" d="M280.747,110.152c-.064-.05-.266.171-.712.353a2.589,2.589,0,0,1-1.937-.039c-1.546-.64-2.765-3.186-2.728-5.867a8.57,8.57,0,0,1,.876-3.676,2.993,2.993,0,0,1,2.029-1.907,1.319,1.319,0,0,1,1.5.772c.182.423.076.716.153.745.04.039.329-.236.234-.855a1.649,1.649,0,0,0-.546-.955,1.954,1.954,0,0,0-1.416-.436,3.638,3.638,0,0,0-2.8,2.192,8.794,8.794,0,0,0-1.067,4.1c-.028,3,1.391,5.862,3.513,6.571a2.774,2.774,0,0,0,2.383-.3c.475-.349.567-.678.517-.707" transform="translate(-43.821 -15.699)" fill="#eb996e"/>
          <path id="Path_44639" data-name="Path 44639" d="M337.491,124.312c.162-.376-2.748-1.247-4.795-3.978a16.652,16.652,0,0,1-2.056-3.88c-.434-1.078-.762-1.755-.923-1.706s-.113.777.125,1.951a10.97,10.97,0,0,0,1.912,4.346,8.881,8.881,0,0,0,3.8,2.906c1.134.46,1.9.488,1.941.361" transform="translate(-52.654 -18.329)" fill="#263238"/>
          <path id="Path_44640" data-name="Path 44640" d="M387.093,43.708a3.51,3.51,0,0,0-1.648-2.049c-1.7-1-3.65-.868-5.538-.9a31.286,31.286,0,0,1-16.291-4.952,72.875,72.875,0,0,0-7.581-9.187c-6.567-6.771-11.97-11.379-17.558-13.628-7.229-2.91-19.318-4.09-26.856-2.112S297.315,18.974,296.267,26.7c-4.227-3.574-10.573-3.543-15.721-1.474l-.129-.056c-5.733,2.044-8.991,8.1-10.682,13.948s-2.413,12.1-5.51,17.34c-.647,1.1-1.416,2.408-.851,3.548a2.418,2.418,0,0,0,2.532,1.1,7.086,7.086,0,0,0,2.669-1.207l-1.918,4.594a13.552,13.552,0,0,0,6.236-.417,132.947,132.947,0,0,0,4.079,15.418c2.4-.007,4.59.165,6.068,1.493,2.008,1.806,2.906,5.2,6.243,3.913,1.7-.656,3.248-4.219,3.816-5.949a84.542,84.542,0,0,0,3.661-35.788,27.169,27.169,0,0,1,8.391-6.057l-.256.231c6.054-2.1,12.9-4.171,18.646-1.329,4.456,2.2,7.075,6.828,10.407,10.518a34.011,34.011,0,0,0,24.241,11.2c.32,6.1-.192,14.721.129,20.821l5.131-9.771.005.049c.42-.715.767-1.436,1.1-2.159l.115-.219v-.027a37.844,37.844,0,0,1,1.716-3.47l.058.052c3.306,2.916,8.175-1.543,5.568-5.1a8.594,8.594,0,0,0-1.843-1.851,6.03,6.03,0,0,0,5.743,1.489,4.73,4.73,0,0,0,3.346-4.678,4.022,4.022,0,0,0-2.4-3.227,13.591,13.591,0,0,0,7.727-1.7c1.526-.871,3.022-2.3,2.5-4.221" transform="translate(-42.039 -1.582)" fill="#263238"/>
          <path id="Path_44641" data-name="Path 44641" d="M304.629,32.849a18.634,18.634,0,0,0-2.174,1.988,15.538,15.538,0,0,0-3.326,7.194,27.269,27.269,0,0,0-.554,5.507c-.009,2,.151,4.132.3,6.385a57.126,57.126,0,0,1,.162,7.106,25.015,25.015,0,0,1-.488,3.748,7.817,7.817,0,0,1-1.529,3.637,3.268,3.268,0,0,1-3.058,1.028,4.866,4.866,0,0,1-2.752-1.554c-1.395-1.628-1.742-3.692-2.089-5.51l.455.055a18.138,18.138,0,0,1-2.637,4.54,6.451,6.451,0,0,1-4.216,2.3,4.167,4.167,0,0,1-2.234-.391,3.61,3.61,0,0,1-1.518-1.5,3.714,3.714,0,0,1-.46-1.921,2.7,2.7,0,0,1,.7-1.686l.23.205a13.978,13.978,0,0,1-4.655,3.493,12.48,12.48,0,0,1-1.443.56,2.4,2.4,0,0,1-.517.129,2.619,2.619,0,0,1,.489-.208c.322-.133.8-.325,1.4-.629a14.393,14.393,0,0,0,4.493-3.543l.23.205a2.777,2.777,0,0,0-.144,3.22,3.251,3.251,0,0,0,1.372,1.323,3.777,3.777,0,0,0,2.025.329,6.051,6.051,0,0,0,3.913-2.181,17.877,17.877,0,0,0,2.538-4.442l.312-.695.144.75c.347,1.817.717,3.8,1.988,5.264a4.378,4.378,0,0,0,2.463,1.391,2.759,2.759,0,0,0,2.6-.87,7.4,7.4,0,0,0,1.412-3.4A24.842,24.842,0,0,0,298.547,61a57.984,57.984,0,0,0-.134-7.047c-.139-2.251-.286-4.4-.258-6.419a27.17,27.17,0,0,1,.623-5.579,15.328,15.328,0,0,1,3.53-7.251,8.787,8.787,0,0,1,2.32-1.856" transform="translate(-43.581 -5.247)" fill="#455a64"/>
          <path id="Path_44642" data-name="Path 44642" d="M377.851,51.621c.005.007-.054.057-.174.148l-.541.395a7.265,7.265,0,0,1-.918.589,11.464,11.464,0,0,1-1.318.693,19.209,19.209,0,0,1-9.275,1.669,24.553,24.553,0,0,1-13.079-4.829,42.548,42.548,0,0,1-11.235-12.95c-1.576-2.624-2.861-5.314-4.277-7.8a28.726,28.726,0,0,0-4.842-6.6,14.789,14.789,0,0,0-6.244-3.79,10.6,10.6,0,0,0-3.292-.379,11.655,11.655,0,0,0-3.015.579,12.542,12.542,0,0,0-6.963,5.892,15.115,15.115,0,0,0-1.119,3.249.777.777,0,0,1,.018-.228c.028-.179.062-.4.1-.663a10.874,10.874,0,0,1,.823-2.447,12.343,12.343,0,0,1,2.426-3.29,12.684,12.684,0,0,1,4.6-2.853,11.926,11.926,0,0,1,3.111-.631,10.971,10.971,0,0,1,3.426.365,15.155,15.155,0,0,1,6.457,3.859,28.954,28.954,0,0,1,4.948,6.687c1.433,2.5,2.719,5.185,4.281,7.785A42.554,42.554,0,0,0,352.82,49.908a24.4,24.4,0,0,0,12.827,4.85,19.518,19.518,0,0,0,9.171-1.491,30.584,30.584,0,0,0,3.033-1.646" transform="translate(-49.767 -2.935)" fill="#455a64"/>
          <path id="Path_44643" data-name="Path 44643" d="M388.435,46.609a3.386,3.386,0,0,1-.777.541,16.752,16.752,0,0,1-2.3,1.169,22.413,22.413,0,0,1-3.644,1.2,23.592,23.592,0,0,1-9.35.3,22.466,22.466,0,0,1-3.712-.96,16.79,16.79,0,0,1-2.371-1.019,3.4,3.4,0,0,1-.81-.49c.042-.086,1.239.529,3.293,1.169a25.674,25.674,0,0,0,3.674.84,25.308,25.308,0,0,0,9.173-.294,25.552,25.552,0,0,0,3.612-1.074c2.01-.769,3.165-1.46,3.212-1.377" transform="translate(-58.379 -7.444)" fill="#455a64"/>
          <path id="Path_44644" data-name="Path 44644" d="M369.183,84.74c-.431.439-2.932-1.575-6.562-1.673-3.624-.151-6.34,1.683-6.72,1.216-.188-.208.26-1.008,1.444-1.839a9.091,9.091,0,0,1,5.4-1.531,8.769,8.769,0,0,1,5.207,1.895c1.092.911,1.447,1.737,1.236,1.933" transform="translate(-56.844 -12.924)" fill="#263238"/>
          <path id="Path_44645" data-name="Path 44645" d="M366.2,93.487a2.938,2.938,0,0,1-3.041,2.749,2.809,2.809,0,0,1-2.826-2.861,2.938,2.938,0,0,1,3.038-2.751,2.813,2.813,0,0,1,2.829,2.864" transform="translate(-57.558 -14.476)" fill="#263238"/>
          <path id="Path_44646" data-name="Path 44646" d="M519.434,186.72c0-6.3-6.016-6.3-6.016-6.3-2.291-3.01-4.869-1.916-4.869-1.916l-9.739,6.569c-1.432,2.463-10.884,11.769-10.884,11.769-2.578-1.916-2.578-5.747-5.668-10.4s-10.087-4.106-10.087-4.106,5.442,12.317,6.015,19.98S474,231.359,474,231.359l27.533,7.738s1.738-11.727,4.823-12.673c3.713-1.139,5.779-6.618,5.779-6.618,4.014-8.131,12.164-19.949,13.31-25.97s-6.015-7.116-6.015-7.116" transform="translate(-75.423 -28.483)" fill="#ffbe9d"/>
          <path id="Path_44647" data-name="Path 44647" d="M275.483,172.12c17.537,11.02,35.211,15.166,53.111,8.03l26.908,6.872,26.473,176.87-155.217,1.348,7.647-41.08,19.242-147.6Z" transform="translate(-36.222 -27.494)" fill="#455a64"/>
          <path id="Path_44648" data-name="Path 44648" d="M379.977,189.855s20.928,8.69,28.915,23.913,20.825,57.952,20.825,57.952l23.648-43.428,43.888,11.219s-32.668,90.107-40.869,98.312c-8.979,8.981-33.448,18.036-45.429,11.048s-14.419-33.516-14.419-33.516Z" transform="translate(-60.696 -30.327)" fill="#455a64"/>
          <path id="Path_44649" data-name="Path 44649" d="M381.652,271.225c-.121,0-.218-7.856-.218-17.545s.1-17.546.218-17.546.218,7.855.218,17.546-.1,17.545-.218,17.545" transform="translate(-60.929 -37.719)" fill="#263238"/>
          <path id="Path_44650" data-name="Path 44650" d="M390.265,201.883a26.14,26.14,0,0,1-1.021,2.9c-.659,1.776-1.534,4.242-2.389,7s-1.524,5.289-1.984,7.127a26.114,26.114,0,0,1-.795,2.967,3.037,3.037,0,0,1,.081-.824c.079-.525.219-1.281.412-2.212.384-1.86,1.01-4.414,1.867-7.187s1.786-5.231,2.519-6.984c.367-.876.679-1.579.911-2.058a3.033,3.033,0,0,1,.4-.726" transform="translate(-61.349 -32.248)" fill="#263238"/>
          <path id="Path_44651" data-name="Path 44651" d="M238.739,243.562l4.856-66.644s-36.535,3.39-48.624,29.165c-10.188,21.721-38.311,87.071-41.322,96.012-8.833,26.233,4.966,62.3,61.853,60.211l6.485-35.664Z" transform="translate(-24.152 -28.26)" fill="#455a64"/>
          <path id="Path_44652" data-name="Path 44652" d="M206.695,361.269a4.274,4.274,0,0,1,.3-.639l.928-1.794,3.485-6.557,1.165-2.17a6.423,6.423,0,0,1,1.67-2.147,4.543,4.543,0,0,1,2.81-.808,12.79,12.79,0,0,1,3.028.491,31.062,31.062,0,0,1,6.114,2.312,16.208,16.208,0,0,1,2.935,1.87l.338.294a1.1,1.1,0,0,1,.287.451,3.8,3.8,0,0,1,.185.918,14.3,14.3,0,0,1,.039,1.809c-.088,2.409-.388,4.731-.687,6.97s-.65,4.388-.992,6.433c-.687,4.09-1.376,7.761-1.965,10.84l-1.428,7.286q-.245,1.244-.39,1.98a5.628,5.628,0,0,1-.147.69,3.442,3.442,0,0,1,.06-.7c.061-.459.165-1.132.31-2,.313-1.77.751-4.257,1.291-7.312.55-3.085,1.207-6.76,1.871-10.849.331-2.044.664-4.193.965-6.426s.588-4.551.676-6.925a13.944,13.944,0,0,0-.038-1.753,3.388,3.388,0,0,0-.158-.808.651.651,0,0,0-.174-.284l-.322-.281A15.883,15.883,0,0,0,226,350.338a31.088,31.088,0,0,0-6.02-2.3,12.488,12.488,0,0,0-2.931-.5,4.181,4.181,0,0,0-2.589.715,6.122,6.122,0,0,0-1.591,2.019q-.619,1.122-1.187,2.154l-3.607,6.49q-.628,1.1-1,1.754a4.227,4.227,0,0,1-.375.6" transform="translate(-33.017 -55.453)" fill="#263238"/>
          <path id="Path_44653" data-name="Path 44653" d="M175.255,326.272a1.586,1.586,0,0,1,.429-.013l1.227.047c1.064.052,2.6.142,4.5.318a58.452,58.452,0,0,1,6.635.965,33.954,33.954,0,0,1,7.8,2.586,30.612,30.612,0,0,1,6.865,4.53,18.34,18.34,0,0,1,4.168,5.266,11.669,11.669,0,0,1,1.263,4.347,7.72,7.72,0,0,1,.024,1.232,1.558,1.558,0,0,1-.035.427c-.048,0-.031-.593-.158-1.64a12.237,12.237,0,0,0-1.369-4.223,18.571,18.571,0,0,0-4.16-5.107,31.15,31.15,0,0,0-6.788-4.437,34.829,34.829,0,0,0-7.7-2.585,64.545,64.545,0,0,0-6.582-1.052c-1.889-.214-3.423-.352-4.483-.456l-1.22-.129a1.58,1.58,0,0,1-.423-.074" transform="translate(-27.995 -52.115)" fill="#263238"/>
          <path id="Path_44654" data-name="Path 44654" d="M220.356,322.27a15.8,15.8,0,0,1-.908,2.622c-.626,1.6-1.558,3.771-2.628,6.153l-2.742,6.094a19.433,19.433,0,0,1-1.194,2.5,15.748,15.748,0,0,1,.908-2.622c.626-1.6,1.558-3.772,2.628-6.154l2.742-6.094a19.331,19.331,0,0,1,1.193-2.5" transform="translate(-34.004 -51.478)" fill="#263238"/>
          <path id="Path_44655" data-name="Path 44655" d="M245.8,256.26c-.121,0-.218-4.224-.218-9.434s.1-9.435.218-9.435.218,4.223.218,9.435-.1,9.434-.218,9.434" transform="translate(-39.228 -37.92)" fill="#263238"/>
          <g id="Group_172831" data-name="Group 172831" transform="translate(161.163 293.861)" opacity="0.3">
            <g id="Group_172830" data-name="Group 172830">
              <g id="Group_172829" data-name="Group 172829" clip-path="url(#clip-path-4)">
                <path id="Path_44656" data-name="Path 44656" d="M210.778,349.725c-9.611,3.353-16.108,12.074-18.732,21.908a3.4,3.4,0,0,0,.231,3.064,2.419,2.419,0,0,0,3.017.247,7.056,7.056,0,0,0,2.139-2.465c4.631-7.41,9.15-14.274,13.344-22.754" transform="translate(-191.8 -349.725)"/>
              </g>
            </g>
          </g>
          <g id="Group_172834" data-name="Group 172834" transform="translate(137.882 270.472)" opacity="0.3">
            <g id="Group_172833" data-name="Group 172833">
              <g id="Group_172832" data-name="Group 172832" clip-path="url(#clip-path-5)">
                <path id="Path_44657" data-name="Path 44657" d="M194.43,326.264a38.746,38.746,0,0,0-16.544-4.339,25.125,25.125,0,0,0-6.688.588c-3,.63-6.449,2.146-7.1,4.3,6.9-2.16,17.052-.737,24.114.806a25.906,25.906,0,0,1,16.883,11.963,24.082,24.082,0,0,0-10.661-13.318" transform="translate(-164.094 -321.889)"/>
              </g>
            </g>
          </g>
          <path id="Path_44658" data-name="Path 44658" d="M236.786,221.559a5.426,5.426,0,0,1-.334-1.052c-.18-.684-.473-1.666-.87-2.865a46.257,46.257,0,0,0-9.929-16.873c-.855-.929-1.571-1.662-2.082-2.151a5.382,5.382,0,0,1-.757-.8,5.336,5.336,0,0,1,.872.678c.548.452,1.3,1.155,2.192,2.064a41.659,41.659,0,0,1,10,16.993c.361,1.219.61,2.219.739,2.919a5.333,5.333,0,0,1,.169,1.092" transform="translate(-35.591 -31.598)" fill="#263238"/>
          <path id="Path_44659" data-name="Path 44659" d="M247.551,379.226,206.841,281c-1.858-4.482.473-8.115,5.205-8.115h8.191c3.343,0,5.62-1.841,5.835-4.716l.271-3.611c.217-2.874,2.5-4.715,5.844-4.715h38.919a13.622,13.622,0,0,1,9.012,3.987l3.159,3.061a13.615,13.615,0,0,0,9.005,3.987h49.57c4.733,0,10.034,3.633,11.838,8.116l40.358,100.227Z" transform="translate(-32.938 -41.507)" fill="#01abc1"/>
          <g id="Group_172837" data-name="Group 172837" transform="translate(173.263 218.34)" opacity="0.3">
            <g id="Group_172836" data-name="Group 172836">
              <g id="Group_172835" data-name="Group 172835" clip-path="url(#clip-path-6)">
                <path id="Path_44660" data-name="Path 44660" d="M247.551,379.226,206.841,281c-1.858-4.482.473-8.115,5.205-8.115h8.191c3.343,0,5.62-1.841,5.835-4.716l.271-3.611c.217-2.874,2.5-4.715,5.844-4.715h38.919a13.622,13.622,0,0,1,9.012,3.987l3.159,3.061a13.615,13.615,0,0,0,9.005,3.987h49.57c4.733,0,10.034,3.633,11.838,8.116l40.358,100.227Z" transform="translate(-206.201 -259.847)"/>
              </g>
            </g>
          </g>
          <path id="Path_44661" data-name="Path 44661" d="M244.443,349.447l-15.354-59.364c-1.011-3.909,1.549-7.83,5.112-7.83H354.549a5.489,5.489,0,0,1,5.126,4.422l22.349,89.352c.981,3.923-.587,6.277-4.154,6.231l-121.089.038a5.492,5.492,0,0,1-5.058-4.386Z" transform="translate(-36.558 -45.086)" fill="#e0e0e0"/>
          <path id="Path_44662" data-name="Path 44662" d="M256.056,379.785,249.515,286.3a5.733,5.733,0,0,1,5.719-6.134h124.7v99.619Z" transform="translate(-39.854 -44.753)" fill="#ebebeb"/>
          <path id="Path_44663" data-name="Path 44663" d="M255.642,381.924l14.835-96.376a6.905,6.905,0,0,1,6.78-5.383H403.4a6.819,6.819,0,0,1,6.368,9.5l-27.238,88.2Z" transform="translate(-40.835 -44.753)" fill="#fafafa"/>
          <path id="Path_44664" data-name="Path 44664" d="M255.412,383.517l30.593-90.263a9.057,9.057,0,0,1,8.508-6.275H424.556a6.355,6.355,0,0,1,5.808,8.432L401.909,383.56Z" transform="translate(-40.799 -45.841)" fill="#01abc1"/>
          <g id="Group_172840" data-name="Group 172840" transform="translate(217.265 283.777)" opacity="0.3">
            <g id="Group_172839" data-name="Group 172839">
              <g id="Group_172838" data-name="Group 172838" clip-path="url(#clip-path-7)">
                <path id="Path_44665" data-name="Path 44665" d="M318.791,376.511s-4.91.224-7.173.379a66.825,66.825,0,0,1-31.6-5.605c-3.059-1.364-6.3-3.288-7.221-6.507-1.037-3.606,1.3-7.359,4.145-9.8s6.309-4.184,8.781-7.006,3.642-7.391,1.207-10.245l-.673.492c-1.759,4.457-6.658,6.608-10.715,9.157a37.815,37.815,0,0,0-15.88,20.755c-1.428,4.673-1.809,10.124,1.024,14.1,2.011,2.824,5.3,4.43,8.551,5.636,9.838,3.648,20.354,3.785,30.846,3.8,3.315,0,13.49-.136,13.49-.136,3.2-.871,4.254-2.535,6.18-5.234,1.768-2.478,1.381-7.843-.963-9.785" transform="translate(-258.568 -337.723)"/>
              </g>
            </g>
          </g>
          <path id="Path_44666" data-name="Path 44666" d="M314.047,376.1,280.13,371l-13.169-7.577a5.942,5.942,0,0,1-3.027-4.784c0-.037,0-.075-.005-.112a6.011,6.011,0,0,1,3.727-5.74c4.178-1.76,10.8-4.1,13.618-9.046,4.056-7.106,0-8.58,0-8.58l-28.324,11.322L232.9,360.132l-4.034,22.754,27.975,9.136s31.173,1.757,39.775.792,8.6-4.972,8.6-4.972c1.6-.5,4.826-3.335,4.825-5.978,4.174-3.916,4-5.763,4-5.763" transform="translate(-36.558 -53.538)" fill="#ffbe9d"/>
          <path id="Path_44667" data-name="Path 44667" d="M278.611,395.537a6.714,6.714,0,0,1,1.4.267c.887.215,2.175.5,3.773.818a79.737,79.737,0,0,0,25.314.988c1.617-.193,2.925-.377,3.826-.523a6.777,6.777,0,0,1,1.413-.158,6.6,6.6,0,0,1-1.372.378c-.891.214-2.193.46-3.812.707a68.906,68.906,0,0,1-25.454-.993c-1.595-.371-2.875-.718-3.746-1a6.771,6.771,0,0,1-1.339-.484" transform="translate(-44.504 -63.181)" fill="#eb996e"/>
          <path id="Path_44668" data-name="Path 44668" d="M282.3,389.3a7.015,7.015,0,0,1,1.418.271c.9.218,2.21.5,3.833.814a82.354,82.354,0,0,0,12.821,1.417,87.027,87.027,0,0,0,12.891-.592c1.641-.2,2.969-.386,3.883-.534a6.994,6.994,0,0,1,1.434-.162,6.929,6.929,0,0,1-1.393.382c-.9.217-2.226.468-3.869.718a72.95,72.95,0,0,1-12.964.764,69.671,69.671,0,0,1-12.886-1.594c-1.622-.366-2.923-.712-3.808-1a6.865,6.865,0,0,1-1.36-.487" transform="translate(-45.093 -62.184)" fill="#eb996e"/>
          <path id="Path_44669" data-name="Path 44669" d="M504.031,222.1,443.768,234a7.684,7.684,0,0,1-9.029-6.051l-16.475-83.412a7.686,7.686,0,0,1,6.051-9.029l38.219-7.549,35.607,24.649,11.941,60.46a7.686,7.686,0,0,1-6.051,9.029" transform="translate(-66.789 -20.44)" fill="#ebebeb"/>
          <path id="Path_44670" data-name="Path 44670" d="M470.978,127.96l4.637,23.475a7.149,7.149,0,0,0,8.4,5.629l22.573-4.455Z" transform="translate(-75.232 -20.44)" fill="#f5f5f5"/>
          <path id="Path_44671" data-name="Path 44671" d="M477.347,158.121s.828,5.752,7.679,6.344a7.44,7.44,0,0,0,.775.02c3.052-.055,23.136-.436,23.048-.881-.095-.482-1.246-6.308-1.246-6.308l-22.572,4.458s-5.674.921-7.683-3.632" transform="translate(-76.25 -25.126)" fill="#e0e0e0"/>
          <path id="Path_44672" data-name="Path 44672" d="M503.991,222.057s.108-.037.325-.1a6.555,6.555,0,0,0,.949-.31,7.628,7.628,0,0,0,4.768-8.128c-.441-2.442-1.041-5.254-1.66-8.406-2.512-12.622-6.107-30.687-10.45-52.514l.075.114-35.622-24.626.16.033-22.053,4.363-11.535,2.28-2.927.578a19.643,19.643,0,0,0-2.88.68,7.471,7.471,0,0,0-4.172,3.907,7.371,7.371,0,0,0-.6,3.995c.213,1.353.526,2.738.782,4.1q.808,4.1,1.606,8.136,1.594,8.079,3.138,15.908c2.055,10.429,4.038,20.489,5.927,30.073q1.414,7.188,2.757,14,.669,3.406,1.319,6.71.325,1.651.645,3.277a17.668,17.668,0,0,0,.768,3.152,7.529,7.529,0,0,0,4.392,4.192,7.45,7.45,0,0,0,2.989.434,28.667,28.667,0,0,0,2.985-.508l11.377-2.233,34.341-6.712,9.34-1.8,2.432-.458c.548-.1.831-.141.831-.141s-.277.07-.823.185l-2.423.5-9.325,1.884-34.313,6.848-11.373,2.26a28.517,28.517,0,0,1-3.029.521,7.8,7.8,0,0,1-3.129-.448,7.887,7.887,0,0,1-4.608-4.384,17.9,17.9,0,0,1-.794-3.218l-.65-3.276q-.654-3.3-1.33-6.707-1.349-6.809-2.775-14c-1.9-9.582-3.888-19.64-5.952-30.068q-1.546-7.822-3.145-15.907-.8-4.038-1.608-8.135c-.258-1.375-.565-2.716-.786-4.129a7.808,7.808,0,0,1,.64-4.23,7.908,7.908,0,0,1,4.417-4.136,19.952,19.952,0,0,1,2.948-.7l2.927-.578,11.537-2.277,22.054-4.349.087-.017.073.05L498.2,152.417l.06.042.014.072c4.281,21.839,7.824,39.916,10.3,52.545.605,3.159,1.186,5.96,1.614,8.425a7.716,7.716,0,0,1-1.732,5.952,7.627,7.627,0,0,1-3.176,2.249,5.706,5.706,0,0,1-.962.284c-.219.05-.332.069-.332.069" transform="translate(-66.748 -20.398)" fill="#263238"/>
          <path id="Path_44673" data-name="Path 44673" d="M506.584,152.609a2.988,2.988,0,0,1-.571.158l-1.655.368-6.1,1.275-9.06,1.836-5.36,1.06a7.377,7.377,0,0,1-7.676-3.723,8.53,8.53,0,0,1-.9-2.8l-1.045-5.358c-.655-3.406-1.245-6.479-1.745-9.078-.474-2.55-.86-4.631-1.139-6.128-.118-.69-.214-1.244-.287-1.67a2.975,2.975,0,0,1-.071-.588,2.909,2.909,0,0,1,.157.571c.094.421.217.971.369,1.654.312,1.491.745,3.562,1.276,6.1.527,2.594,1.149,5.662,1.838,9.061.341,1.707.7,3.5,1.071,5.353a8.107,8.107,0,0,0,.857,2.675,6.964,6.964,0,0,0,7.223,3.509l5.353-1.033,9.077-1.744,6.128-1.139,1.67-.287a2.973,2.973,0,0,1,.588-.071" transform="translate(-75.232 -20.44)" fill="#263238"/>
          <path id="Path_44674" data-name="Path 44674" d="M468.5,153.157c.024.118-7.076,1.621-15.854,3.354s-15.917,3.044-15.941,2.926,7.074-1.62,15.856-3.355,15.915-3.043,15.939-2.925" transform="translate(-69.758 -24.464)" fill="#263238"/>
          <path id="Path_44675" data-name="Path 44675" d="M486.34,163.548c.023.118-10.453,2.288-23.4,4.844s-23.46,4.534-23.484,4.416,10.45-2.287,23.4-4.845,23.458-4.533,23.481-4.415" transform="translate(-70.198 -26.124)" fill="#263238"/>
          <path id="Path_44676" data-name="Path 44676" d="M489.093,177.485c.023.118-10.453,2.288-23.4,4.844s-23.46,4.534-23.484,4.416,10.45-2.287,23.4-4.845,23.458-4.533,23.481-4.415" transform="translate(-70.638 -28.35)" fill="#263238"/>
          <path id="Path_44677" data-name="Path 44677" d="M444.965,200.682c-.024-.118,10.453-2.288,23.4-4.844s23.46-4.534,23.484-4.416-10.45,2.287-23.4,4.845-23.458,4.533-23.481,4.415" transform="translate(-71.077 -30.576)" fill="#263238"/>
          <path id="Path_44678" data-name="Path 44678" d="M494.6,205.359c.023.118-10.453,2.288-23.4,4.844s-23.46,4.534-23.484,4.416,10.45-2.287,23.4-4.845,23.458-4.533,23.481-4.415" transform="translate(-71.517 -32.803)" fill="#263238"/>
          <path id="Path_44679" data-name="Path 44679" d="M497.351,219.3c.024.118-10.453,2.288-23.4,4.844s-23.46,4.534-23.484,4.416,10.45-2.287,23.4-4.845,23.458-4.533,23.481-4.415" transform="translate(-71.957 -35.029)" fill="#263238"/>
          <path id="Path_44680" data-name="Path 44680" d="M466.726,224.161,422.5,232.9a3.547,3.547,0,0,1-4.167-2.792l-3.168-16.039a3.548,3.548,0,0,1,2.792-4.168l44.226-8.735a3.546,3.546,0,0,1,4.167,2.793l3.169,16.038a3.548,3.548,0,0,1-2.793,4.168" transform="translate(-66.306 -32.122)" fill="#01abc1"/>
          <path id="Path_44681" data-name="Path 44681" d="M431.049,218.173l3.948-.779c2.844-.562,5.131.766,5.65,3.4s-1.09,4.731-3.933,5.293l-3.948.78Zm5.239,6.279a2.751,2.751,0,1,0-1.065-5.388l-1.837.363,1.065,5.388Z" transform="translate(-68.854 -34.705)" fill="#fff"/>
          <path id="Path_44682" data-name="Path 44682" d="M443.6,220.181a4.855,4.855,0,1,1,5.643,3.554,4.586,4.586,0,0,1-5.643-3.554m7.475-1.476a2.773,2.773,0,1,0-2.17,3.317,2.7,2.7,0,0,0,2.17-3.317" transform="translate(-70.845 -34.286)" fill="#fff"/>
          <path id="Path_44683" data-name="Path 44683" d="M456.071,217.719a4.879,4.879,0,0,1,7.71-4.593l-1.056,1.447a2.85,2.85,0,0,0-2.386-.586,2.835,2.835,0,1,0,1.1,5.562,2.826,2.826,0,0,0,1.981-1.461l1.528.936a4.871,4.871,0,0,1-8.876-1.3" transform="translate(-72.836 -33.893)" fill="#fff"/>
          <path id="Path_44684" data-name="Path 44684" d="M507.555,165.47s4.451-5.635,7.878-2.484,2.439,4.772-.82,9.753c0,0,7.275-.382,4.942,7.091,0,0,7.25-.8,6.552,5.313,0,0,5.474,5.357,2.627,8.81s-13.172,9.686-15.78,8.614-2.628-4.765-2.628-4.765-3.1-1.4-3.959-3.032.614-3.926.614-3.926-2.616-2.672-3.264-3.417.355-4.212.355-4.212l4.175-4.052s-5.749,2.5-6.947,1.546-2.548-1.777-1.266-3.516a58.2,58.2,0,0,1,5.843-5.627Z" transform="translate(-79.791 -25.882)" fill="#ffbe9d"/>
          <path id="Path_44685" data-name="Path 44685" d="M513.073,202.621a19.819,19.819,0,0,1,1.884-2.288,22.011,22.011,0,0,1,5.311-4.865,51.248,51.248,0,0,0,5.969-3.837,28.157,28.157,0,0,0,2.035-2.094A5.306,5.306,0,0,1,526.565,192a35.268,35.268,0,0,1-5.926,4.059,26.716,26.716,0,0,0-5.321,4.61,9.355,9.355,0,0,1-2.244,1.957" transform="translate(-81.956 -30.276)" fill="#eb996e"/>
          <path id="Path_44686" data-name="Path 44686" d="M508.28,195.3c-.135-.135,2.537-3.021,5.967-6.444,1.722-1.685,3.2-3.323,4.47-4.326a5.377,5.377,0,0,1,2.238-1.322c.05.093-.784.6-1.915,1.691-1.15,1.062-2.563,2.743-4.3,4.448-3.43,3.423-6.32,6.089-6.456,5.953" transform="translate(-81.19 -29.264)" fill="#eb996e"/>
          <path id="Path_44687" data-name="Path 44687" d="M509.908,181.137c-.137-.173,1.514-1.483,3.345-3.228,1.864-1.733,2.772-3.585,2.948-3.517.2.044-.511,2.194-2.464,4.013-1.906,1.812-3.732,2.861-3.83,2.733" transform="translate(-81.45 -27.856)" fill="#eb996e"/>
          <path id="Path_44688" data-name="Path 44688" d="M507.514,165.418a1.834,1.834,0,0,1-.074.417c-.075.311-.17.7-.287,1.187-.282,1.091-.673,2.6-1.17,4.532l-.011.043-.037.032c-.839.739-1.783,1.587-2.8,2.547a24.829,24.829,0,0,0-3.1,3.316,1.735,1.735,0,0,0-.316,1.054,1.666,1.666,0,0,0,.56.982,11.25,11.25,0,0,0,1.024.846,1.548,1.548,0,0,0,1.159.229,22.256,22.256,0,0,0,5.64-1.749l1.346-.556-1.039,1.015c-1.315,1.284-2.713,2.651-4.161,4.066l.063-.089a5.308,5.308,0,0,0-.214,4.229,11.8,11.8,0,0,0,3.293,3.356l.282.213-.228.269c-.908,1.073-1.552,2.77-.364,3.817a15.453,15.453,0,0,0,3.943,2.7l-.489.271.007-.082s0-.038,0-.023v.006c.086.1-.194-.241.2.3.938-.443.271-.182.476-.255v.005l-.007.159,0,.34a6.448,6.448,0,0,0,.063.685,5.342,5.342,0,0,0,.361,1.318,3.486,3.486,0,0,0,.739,1.107,2.065,2.065,0,0,0,1.079.619,6.561,6.561,0,0,0,2.75-.542,24.45,24.45,0,0,0,2.732-1.228,45,45,0,0,0,4.86-2.94,28.324,28.324,0,0,0,4.252-3.489,3.443,3.443,0,0,0,1.1-2.188,5.321,5.321,0,0,0-.448-2.449,13.92,13.92,0,0,0-2.861-4.158l-.1-.108.008-.16a5.237,5.237,0,0,0-.246-2.39,3.547,3.547,0,0,0-1.465-1.732,7.834,7.834,0,0,0-4.486-.859l-.418.027.1-.413c.11-.455.24-.9.334-1.349a7.557,7.557,0,0,0,.1-1.337,3.713,3.713,0,0,0-.75-2.366,5.455,5.455,0,0,0-4.331-1.695H514.1l.26-.4a40.447,40.447,0,0,0,2.343-3.822,5.617,5.617,0,0,0,.6-1.892,3.1,3.1,0,0,0-.373-1.762,7.864,7.864,0,0,0-2.287-2.485,3.361,3.361,0,0,0-2.721-.278,9.106,9.106,0,0,0-3.384,2.118c-.344.313-.587.571-.756.741a1.649,1.649,0,0,1-.262.251,1.172,1.172,0,0,1,.206-.3,10.019,10.019,0,0,1,.71-.8,11.066,11.066,0,0,1,1.3-1.15,6.93,6.93,0,0,1,2.1-1.134,3.654,3.654,0,0,1,2.978.251l.7.509.63.6a7.2,7.2,0,0,1,1.142,1.48,3.512,3.512,0,0,1,.448,1.989,6.01,6.01,0,0,1-.613,2.058,40.118,40.118,0,0,1-2.331,3.9l-.227-.394a7.6,7.6,0,0,1,2.535.361,4.688,4.688,0,0,1,2.261,1.5,4.278,4.278,0,0,1,.89,2.7,8.1,8.1,0,0,1-.1,1.451c-.095.476-.227.947-.342,1.428l-.318-.386a8.378,8.378,0,0,1,4.879.918,4.183,4.183,0,0,1,1.732,2.031,5.869,5.869,0,0,1,.3,2.7l-.095-.269a14.491,14.491,0,0,1,3.024,4.368,5.966,5.966,0,0,1,.5,2.769,4.294,4.294,0,0,1-.4,1.422,6.21,6.21,0,0,1-.875,1.166,28.811,28.811,0,0,1-4.356,3.59,45.36,45.36,0,0,1-4.936,2.989,25.1,25.1,0,0,1-2.81,1.261,7.074,7.074,0,0,1-3.09.575A3.434,3.434,0,0,1,511,200.862a5.975,5.975,0,0,1-.407-1.49,6.963,6.963,0,0,1-.069-.758l0-.382.01-.2,0-.039,0-.011c.2-.075-.461.183.478-.26.394.534.113.193.2.3v.029l0,.067-.008.1-.046.508-.444-.236a15.97,15.97,0,0,1-4.134-2.857,3.241,3.241,0,0,1-.708-1.133,2.677,2.677,0,0,1-.057-1.343,5.157,5.157,0,0,1,1.135-2.223l.055.481a12.267,12.267,0,0,1-3.476-3.6,4.42,4.42,0,0,1-.384-2.467,7.825,7.825,0,0,1,.613-2.3l.021-.048.043-.042,4.19-4.036.307.458a22.4,22.4,0,0,1-5.826,1.739,2.046,2.046,0,0,1-1.5-.348,11.707,11.707,0,0,1-1.059-.9,2.124,2.124,0,0,1-.681-1.274,2.167,2.167,0,0,1,.4-1.333,24.306,24.306,0,0,1,3.224-3.355c1.042-.947,2-1.777,2.864-2.5l-.048.075q.841-2.88,1.318-4.516l.359-1.159a1.567,1.567,0,0,1,.145-.381" transform="translate(-79.748 -25.851)" fill="#eb996e"/>
        </g>
      </g>
      <g id="Group_172844" data-name="Group 172844">
        <g id="Group_172843" data-name="Group 172843" clip-path="url(#clip-path)">
          <path id="Path_44689" data-name="Path 44689" d="M133.8,203.936H81.953a6.487,6.487,0,0,1-6.487-6.488V125.687a6.487,6.487,0,0,1,6.487-6.488h32.881l25.452,26.234v52.016a6.487,6.487,0,0,1-6.487,6.488" transform="translate(-12.055 -19.04)" fill="#ebebeb"/>
          <path id="Path_44690" data-name="Path 44690" d="M122.318,119.2v20.2a6.033,6.033,0,0,0,6.033,6.034l19.419,0Z" transform="translate(-19.539 -19.04)" fill="#f5f5f5"/>
          <path id="Path_44691" data-name="Path 44691" d="M122.634,145.345s-.255,4.9,5.321,6.509a6.13,6.13,0,0,0,.638.144c2.536.454,19.229,3.423,19.229,3.039v-5.427H128.4s-4.848-.166-5.768-4.264" transform="translate(-19.589 -23.217)" fill="#e0e0e0"/>
          <path id="Path_44692" data-name="Path 44692" d="M133.758,203.894c0-.03.389.008,1.121-.132a6.5,6.5,0,0,0,2.942-1.37,6.414,6.414,0,0,0,2.322-4.577c.034-2.092-.005-4.52,0-7.23-.018-10.865-.045-26.412-.077-45.194l.051.128L114.642,119.3l.15.064-18.974.007-9.924,0H83.375a16.673,16.673,0,0,0-2.491.092,6.274,6.274,0,0,0-4.072,2.539,6.191,6.191,0,0,0-1.148,3.191c-.045,1.15-.013,2.352-.023,3.52q0,3.523,0,7,0,6.95,0,13.685c0,8.972-.009,17.626-.013,25.871q-.005,6.184-.009,12.048,0,2.929-.006,5.772l0,2.818a14.961,14.961,0,0,0,.119,2.73,6.319,6.319,0,0,0,5.331,5.017,24.06,24.06,0,0,0,2.552.067l9.787.014,29.533.07,8.029.04,2.088.022c.471.008.712.023.712.023s-.241.015-.712.023l-2.088.021-8.029.041-29.533.07-9.787.014a24.009,24.009,0,0,1-2.6-.065,6.6,6.6,0,0,1-2.528-.886,6.68,6.68,0,0,1-3.112-4.4,15.169,15.169,0,0,1-.133-2.8l0-2.818q0-2.842-.005-5.772-.005-5.858-.009-12.048c0-8.245-.008-16.9-.013-25.871q0-6.729,0-13.685,0-3.475,0-7c.01-1.181-.024-2.338.024-3.551a6.616,6.616,0,0,1,1.228-3.415,6.7,6.7,0,0,1,4.356-2.716,16.829,16.829,0,0,1,2.562-.1h2.518l9.924,0,18.974.007h.089l.061.064,25.433,26.253.052.053v.074c-.032,18.782-.059,34.328-.077,45.194-.018,2.715.005,5.128-.045,7.241a6.522,6.522,0,0,1-2.415,4.652,6.441,6.441,0,0,1-3,1.34,4.845,4.845,0,0,1-.844.076c-.19.005-.286,0-.286,0" transform="translate(-12.013 -18.999)" fill="#263238"/>
          <path id="Path_44693" data-name="Path 44693" d="M147.73,145.433a2.115,2.115,0,0,1-.5.044l-1.43.041-5.26.069-7.8.045-4.613,0a6.258,6.258,0,0,1-5.778-4.362,7.2,7.2,0,0,1-.284-2.475c0-1.6.008-3.138.013-4.608.018-2.922.033-5.563.046-7.8.029-2.177.053-3.96.07-5.261.017-.581.03-1.055.041-1.43a2.133,2.133,0,0,1,.045-.5,2.171,2.171,0,0,1,.044.5c.011.375.024.849.041,1.43.017,1.3.04,3.084.07,5.261.013,2.238.029,4.879.047,7.8,0,1.47.008,3.012.013,4.608a6.832,6.832,0,0,0,.271,2.344,5.849,5.849,0,0,0,5.376,4.064l4.6.022,7.8.049,5.26.07,1.43.041a2.138,2.138,0,0,1,.5.045" transform="translate(-19.497 -19.04)" fill="#263238"/>
          <path id="Path_44694" data-name="Path 44694" d="M115.952,140.606c0,.121-6.124.218-13.677.218s-13.678-.1-13.678-.218,6.123-.218,13.678-.218,13.677.1,13.677.218" transform="translate(-14.152 -22.425)" fill="#263238"/>
          <path id="Path_44695" data-name="Path 44695" d="M128.931,152.6c0,.121-9.029.218-20.165.218s-20.167-.1-20.167-.218,9.028-.218,20.167-.218,20.165.1,20.165.218" transform="translate(-14.152 -24.34)" fill="#263238"/>
          <path id="Path_44696" data-name="Path 44696" d="M128.931,164.587c0,.121-9.029.218-20.165.218s-20.167-.1-20.167-.218,9.028-.218,20.167-.218,20.165.1,20.165.218" transform="translate(-14.152 -26.256)" fill="#263238"/>
          <path id="Path_44697" data-name="Path 44697" d="M128.931,176.577c0,.121-9.029.218-20.165.218s-20.167-.1-20.167-.218,9.028-.218,20.167-.218,20.165.1,20.165.218" transform="translate(-14.152 -28.171)" fill="#263238"/>
          <path id="Path_44698" data-name="Path 44698" d="M128.931,188.568c0,.121-9.029.218-20.165.218s-20.167-.1-20.167-.218,9.028-.218,20.167-.218,20.165.1,20.165.218" transform="translate(-14.152 -30.086)" fill="#263238"/>
          <path id="Path_44699" data-name="Path 44699" d="M128.931,200.558c0,.121-9.029.218-20.165.218s-20.167-.1-20.167-.218,9.028-.218,20.167-.218,20.165.1,20.165.218" transform="translate(-14.152 -32.002)" fill="#263238"/>
          <path id="Path_44700" data-name="Path 44700" d="M102.119,199.637H65.177a3.547,3.547,0,0,1-3.548-3.547V183.4a3.547,3.547,0,0,1,3.548-3.547h36.942a3.547,3.547,0,0,1,3.547,3.547v12.692a3.548,3.548,0,0,1-3.548,3.548" transform="translate(-9.844 -28.729)" fill="#01abc1"/>
          <path id="Path_44701" data-name="Path 44701" d="M80.917,190.23c0,1.665-1.249,2.7-3.247,2.7H76.164v2.061h-1.73v-7.476H77.67c2,0,3.247,1.037,3.247,2.713m-1.752,0c0-.823-.534-1.3-1.591-1.3H76.164v2.6h1.409c1.058,0,1.591-.481,1.591-1.292" transform="translate(-11.89 -29.953)" fill="#fff"/>
          <path id="Path_44702" data-name="Path 44702" d="M83.61,187.518h3.4c2.446,0,4.122,1.473,4.122,3.738s-1.676,3.737-4.122,3.737h-3.4Zm3.311,6.055a2.321,2.321,0,1,0,0-4.635H85.34v4.635Z" transform="translate(-13.356 -29.954)" fill="#fff"/>
          <path id="Path_44703" data-name="Path 44703" d="M95.837,188.905v1.976H99.3v1.388h-3.46v2.723h-1.73v-7.476h5.65v1.388Z" transform="translate(-15.032 -29.953)" fill="#fff"/>
          <path id="Path_44704" data-name="Path 44704" d="M94.617,344.837H43.324a6.417,6.417,0,0,1-6.418-6.418v-71a6.417,6.417,0,0,1,6.417-6.418H75.854l25.181,25.953v51.461a6.418,6.418,0,0,1-6.418,6.418" transform="translate(-5.895 -41.692)" fill="#ebebeb"/>
          <path id="Path_44705" data-name="Path 44705" d="M83.257,261v19.981a5.969,5.969,0,0,0,5.968,5.969l19.213,0Z" transform="translate(-13.299 -41.692)" fill="#f5f5f5"/>
          <path id="Path_44706" data-name="Path 44706" d="M83.57,286.871s-.253,4.846,5.264,6.439a5.987,5.987,0,0,0,.632.143c2.508.449,19.023,3.386,19.023,3.006V291.09H89.276s-4.8-.164-5.706-4.219" transform="translate(-13.349 -45.824)" fill="#e0e0e0"/>
          <path id="Path_44707" data-name="Path 44707" d="M94.575,344.8c0-.03.385.008,1.108-.131a6.424,6.424,0,0,0,2.911-1.356,6.341,6.341,0,0,0,2.3-4.526c.033-2.07-.005-4.473,0-7.154-.018-10.749-.045-26.13-.077-44.711l.051.128-25.2-25.936.15.064-18.771.007-9.818,0H44.73a16.425,16.425,0,0,0-2.464.09,6.2,6.2,0,0,0-4.027,2.512,6.117,6.117,0,0,0-1.135,3.156c-.045,1.138-.013,2.327-.023,3.481q0,3.488,0,6.925,0,6.877,0,13.539c0,8.877-.009,17.439-.013,25.6q-.005,6.117-.009,11.918,0,2.9-.006,5.71,0,1.405,0,2.789a14.713,14.713,0,0,0,.118,2.7,6.246,6.246,0,0,0,5.272,4.962,23.76,23.76,0,0,0,2.524.067l9.682.014,29.218.07,7.944.04,2.065.022c.466.008.7.023.7.023s-.239.015-.7.023l-2.065.021-7.944.041-29.218.07-9.682.014a23.906,23.906,0,0,1-2.57-.064,6.528,6.528,0,0,1-2.5-.876,6.612,6.612,0,0,1-3.08-4.356,15.063,15.063,0,0,1-.131-2.77q0-1.384,0-2.789,0-2.812-.005-5.71-.005-5.8-.009-11.918c0-8.156-.008-16.719-.013-25.6q0-6.657,0-13.539,0-3.438,0-6.925c.01-1.168-.024-2.313.023-3.512a6.564,6.564,0,0,1,1.216-3.379A6.642,6.642,0,0,1,42.2,260.84a16.585,16.585,0,0,1,2.535-.1h2.491l9.818,0,18.771.007H75.9l.061.064,25.162,25.973.052.053v.074c-.032,18.582-.058,33.962-.077,44.711-.017,2.686.005,5.073-.045,7.164a6.453,6.453,0,0,1-2.39,4.6,6.364,6.364,0,0,1-2.97,1.326,4.81,4.81,0,0,1-.835.076c-.188.005-.283,0-.283,0" transform="translate(-5.853 -41.65)" fill="#263238"/>
          <path id="Path_44708" data-name="Path 44708" d="M108.4,286.958a2.069,2.069,0,0,1-.493.044l-1.415.041-5.2.069-7.719.045-4.563,0a6.193,6.193,0,0,1-5.719-4.316,7.162,7.162,0,0,1-.281-2.45c0-1.579.008-3.1.013-4.558.018-2.891.034-5.5.047-7.72.029-2.153.052-3.916.069-5.2.017-.575.031-1.044.041-1.415a2.09,2.09,0,0,1,.045-.493,2.129,2.129,0,0,1,.044.493c.011.371.024.839.041,1.415.018,1.288.041,3.051.07,5.2.013,2.216.029,4.828.047,7.72,0,1.454.008,2.98.013,4.558a6.75,6.75,0,0,0,.268,2.319,5.783,5.783,0,0,0,5.316,4.019l4.551.022,7.719.049,5.2.07,1.415.042a2.128,2.128,0,0,1,.493.044" transform="translate(-13.258 -41.692)" fill="#263238"/>
          <path id="Path_44709" data-name="Path 44709" d="M76.959,282.182c0,.121-6.058.218-13.531.218s-13.532-.1-13.532-.218,6.057-.218,13.532-.218,13.531.1,13.531.218" transform="translate(-7.97 -45.04)" fill="#263238"/>
          <path id="Path_44710" data-name="Path 44710" d="M89.8,294.044c0,.121-8.933.219-19.95.219s-19.952-.1-19.952-.219,8.931-.218,19.952-.218,19.95.1,19.95.218" transform="translate(-7.97 -46.935)" fill="#263238"/>
          <path id="Path_44711" data-name="Path 44711" d="M89.8,305.908c0,.121-8.933.218-19.95.218s-19.952-.1-19.952-.218,8.931-.219,19.952-.219,19.95.1,19.95.219" transform="translate(-7.97 -48.83)" fill="#263238"/>
          <path id="Path_44712" data-name="Path 44712" d="M89.8,317.77c0,.121-8.933.218-19.95.218s-19.952-.1-19.952-.218,8.931-.218,19.952-.218,19.95.1,19.95.218" transform="translate(-7.97 -50.725)" fill="#263238"/>
          <path id="Path_44713" data-name="Path 44713" d="M89.8,329.632c0,.121-8.933.218-19.95.218s-19.952-.1-19.952-.218,8.931-.218,19.952-.218,19.95.1,19.95.218" transform="translate(-7.97 -52.619)" fill="#263238"/>
          <path id="Path_44714" data-name="Path 44714" d="M89.8,341.495c0,.121-8.933.218-19.95.218s-19.952-.1-19.952-.218,8.931-.219,19.952-.219,19.95.1,19.95.219" transform="translate(-7.97 -54.514)" fill="#263238"/>
          <path id="Path_44715" data-name="Path 44715" d="M63.236,340.584H26.764a3.547,3.547,0,0,1-3.547-3.548v-12.48a3.547,3.547,0,0,1,3.547-3.548H63.236a3.547,3.547,0,0,1,3.547,3.548v12.48a3.547,3.547,0,0,1-3.547,3.548" transform="translate(-3.709 -51.277)" fill="#01abc1"/>
          <path id="Path_44716" data-name="Path 44716" d="M42.295,331.282c0,1.648-1.237,2.673-3.212,2.673h-1.49v2.038H35.881V328.6h3.2c1.975,0,3.212,1.023,3.212,2.683m-1.733,0c0-.814-.528-1.289-1.574-1.289H37.593v2.567h1.395c1.046,0,1.574-.476,1.574-1.278" transform="translate(-5.732 -52.489)" fill="#fff"/>
          <path id="Path_44717" data-name="Path 44717" d="M51.371,331.282c0,1.648-1.235,2.673-3.211,2.673H46.671v2.038H44.959V328.6h3.2c1.976,0,3.211,1.023,3.211,2.683m-1.732,0c0-.814-.529-1.289-1.575-1.289H46.671v2.567h1.394c1.046,0,1.575-.476,1.575-1.278" transform="translate(-7.182 -52.489)" fill="#fff"/>
          <path id="Path_44718" data-name="Path 44718" d="M55.171,329.993H52.8V328.6H59.25v1.394H56.883v6H55.171Z" transform="translate(-8.435 -52.489)" fill="#fff"/>
          <path id="Path_44719" data-name="Path 44719" d="M214.717,103.571H163.751a6.377,6.377,0,0,1-6.377-6.377V26.65a6.377,6.377,0,0,1,6.377-6.377h32.322l25.021,25.789V97.194a6.377,6.377,0,0,1-6.377,6.377" transform="translate(-25.138 -3.238)" fill="#ebebeb"/>
          <path id="Path_44720" data-name="Path 44720" d="M203.43,20.273V40.127a5.931,5.931,0,0,0,5.931,5.931l19.09,0Z" transform="translate(-32.495 -3.238)" fill="#f5f5f5"/>
          <path id="Path_44721" data-name="Path 44721" d="M203.74,45.975s-.251,4.816,5.231,6.4a6.16,6.16,0,0,0,.628.141c2.492.445,18.9,3.364,18.9,2.988V50.167H209.41s-4.767-.163-5.67-4.192" transform="translate(-32.544 -7.344)" fill="#e0e0e0"/>
          <path id="Path_44722" data-name="Path 44722" d="M214.675,103.53c0-.03.382.008,1.1-.13a6.387,6.387,0,0,0,2.891-1.348,6.3,6.3,0,0,0,2.283-4.5c.032-2.056-.005-4.443,0-7.108-.018-10.681-.045-25.963-.077-44.426l.051.127-25.04-25.77.15.064-18.651.007-9.756,0h-2.475a16.329,16.329,0,0,0-2.448.09,6.162,6.162,0,0,0-4,2.494,6.073,6.073,0,0,0-1.128,3.136c-.045,1.13-.013,2.312-.023,3.459q0,3.464,0,6.881,0,6.831,0,13.453c0,8.819-.008,17.327-.013,25.432q-.005,6.078-.009,11.843,0,2.879-.006,5.673,0,1.4,0,2.77a14.6,14.6,0,0,0,.118,2.683,6.205,6.205,0,0,0,5.237,4.93,23.664,23.664,0,0,0,2.507.066l9.62.014,29.031.07,7.893.041,2.053.021c.462.008.7.023.7.023s-.237.015-.7.023l-2.053.021-7.893.041-29.031.07-9.62.014a23.825,23.825,0,0,1-2.554-.063,6.5,6.5,0,0,1-2.486-.871,6.572,6.572,0,0,1-3.061-4.329,14.88,14.88,0,0,1-.13-2.754l0-2.77q0-2.794-.005-5.673-.005-5.759-.009-11.843c0-8.105-.008-16.613-.013-25.432q0-6.615,0-13.453,0-3.417,0-6.881c.01-1.161-.024-2.3.023-3.49a6.515,6.515,0,0,1,1.208-3.359,6.6,6.6,0,0,1,4.285-2.672,16.59,16.59,0,0,1,2.519-.095h2.475l9.756,0,18.651.007h.089l.062.064,25,25.807.052.054v.074c-.032,18.462-.059,33.744-.077,44.426-.017,2.669,0,5.042-.045,7.118a6.407,6.407,0,0,1-2.375,4.574,6.322,6.322,0,0,1-2.952,1.318,4.721,4.721,0,0,1-.829.075c-.187.005-.281,0-.281,0" transform="translate(-25.096 -3.197)" fill="#263238"/>
          <path id="Path_44723" data-name="Path 44723" d="M228.409,46.062a2.1,2.1,0,0,1-.49.044l-1.407.041-5.171.069-7.669.045-4.535,0a6.156,6.156,0,0,1-5.684-4.29,7.091,7.091,0,0,1-.28-2.434c0-1.57.008-3.084.013-4.53.018-2.873.034-5.468.047-7.67.029-2.138.052-3.89.07-5.171.017-.571.03-1.036.041-1.4a2.108,2.108,0,0,1,.044-.491,2.048,2.048,0,0,1,.044.491c.011.369.024.834.041,1.4.018,1.281.041,3.033.07,5.171.013,2.2.029,4.8.047,7.67,0,1.446.008,2.96.013,4.53a6.724,6.724,0,0,0,.266,2.3,5.747,5.747,0,0,0,5.281,3.992l4.522.022,7.669.049,5.171.07,1.407.042a2.1,2.1,0,0,1,.49.044" transform="translate(-32.454 -3.238)" fill="#263238"/>
          <path id="Path_44724" data-name="Path 44724" d="M197.172,41.315c0,.121-6.02.218-13.444.218s-13.446-.1-13.446-.218,6.019-.218,13.446-.218,13.444.1,13.444.218" transform="translate(-27.2 -6.565)" fill="#263238"/>
          <path id="Path_44725" data-name="Path 44725" d="M209.93,53.1c0,.121-8.877.218-19.823.218s-19.825-.1-19.825-.218,8.874-.218,19.825-.218,19.823.1,19.823.218" transform="translate(-27.2 -8.448)" fill="#263238"/>
          <path id="Path_44726" data-name="Path 44726" d="M209.93,64.889c0,.121-8.877.218-19.823.218s-19.825-.1-19.825-.218,8.874-.218,19.825-.218,19.823.1,19.823.218" transform="translate(-27.2 -10.33)" fill="#263238"/>
          <path id="Path_44727" data-name="Path 44727" d="M209.93,76.676c0,.121-8.876.218-19.823.218s-19.825-.1-19.825-.218,8.874-.218,19.825-.218,19.823.1,19.823.218" transform="translate(-27.2 -12.213)" fill="#263238"/>
          <path id="Path_44728" data-name="Path 44728" d="M209.93,88.463c0,.121-8.876.218-19.823.218s-19.825-.1-19.825-.218,8.874-.218,19.825-.218,19.823.1,19.823.218" transform="translate(-27.2 -14.096)" fill="#263238"/>
          <path id="Path_44729" data-name="Path 44729" d="M209.93,100.25c0,.121-8.877.218-19.823.218s-19.825-.1-19.825-.218,8.874-.218,19.825-.218,19.823.1,19.823.218" transform="translate(-27.2 -15.979)" fill="#263238"/>
          <path id="Path_44730" data-name="Path 44730" d="M183.514,99.344H147.32a3.547,3.547,0,0,1-3.548-3.547V83.441a3.547,3.547,0,0,1,3.548-3.547h36.194a3.548,3.548,0,0,1,3.548,3.547V95.8a3.548,3.548,0,0,1-3.548,3.547" transform="translate(-22.966 -12.762)" fill="#01abc1"/>
          <path id="Path_44731" data-name="Path 44731" d="M160.837,94.771l-1.775-2.552-1.743,2.552h-1.954l2.72-3.738L155.5,87.421h1.932l1.691,2.384,1.66-2.384h1.838L160.06,90.97l2.741,3.8Z" transform="translate(-24.818 -13.964)" fill="#fff"/>
          <path id="Path_44732" data-name="Path 44732" d="M165.011,87.421h1.7v5.965H170.4v1.386h-5.387Z" transform="translate(-26.358 -13.964)" fill="#fff"/>
          <path id="Path_44733" data-name="Path 44733" d="M171.819,94.023l.577-1.281a4.325,4.325,0,0,0,2.426.766c1.007,0,1.418-.336,1.418-.788,0-1.376-4.274-.43-4.274-3.16,0-1.249,1.008-2.29,3.1-2.29a4.933,4.933,0,0,1,2.552.651l-.525,1.291a4.152,4.152,0,0,0-2.037-.577c-1.008,0-1.4.378-1.4.84,0,1.355,4.274.42,4.274,3.118,0,1.229-1.018,2.279-3.118,2.279a5.236,5.236,0,0,1-2.993-.85" transform="translate(-27.446 -13.94)" fill="#fff"/>
          <path id="Path_44734" data-name="Path 44734" d="M589.722,356.539H537.943a6.479,6.479,0,0,1-6.478-6.478V278.393a6.479,6.479,0,0,1,6.478-6.479h32.838l25.42,26.2v51.948a6.479,6.479,0,0,1-6.478,6.478" transform="translate(-84.894 -43.435)" fill="#ebebeb"/>
          <path id="Path_44735" data-name="Path 44735" d="M578.256,271.914v20.171a6.025,6.025,0,0,0,6.025,6.026l19.395,0Z" transform="translate(-92.369 -43.435)" fill="#f5f5f5"/>
          <path id="Path_44736" data-name="Path 44736" d="M578.571,298.025s-.255,4.892,5.314,6.5a6.136,6.136,0,0,0,.638.144c2.533.453,19.2,3.418,19.2,3.035v-5.42H584.331s-4.842-.166-5.76-4.259" transform="translate(-92.419 -47.606)" fill="#e0e0e0"/>
          <path id="Path_44737" data-name="Path 44737" d="M589.68,356.5c0-.03.388.008,1.119-.132A6.477,6.477,0,0,0,593.737,355a6.4,6.4,0,0,0,2.32-4.57c.033-2.09-.005-4.515,0-7.222-.018-10.85-.045-26.377-.077-45.133l.051.127-25.439-26.18.15.063-18.948.007-9.913,0h-2.515a16.524,16.524,0,0,0-2.487.092,6.266,6.266,0,0,0-4.066,2.535,6.185,6.185,0,0,0-1.146,3.187c-.045,1.149-.013,2.349-.023,3.515q0,3.519,0,6.991,0,6.941,0,13.667c0,8.961-.008,17.6-.013,25.837q-.005,6.175-.009,12.032,0,2.925-.005,5.764,0,1.418,0,2.815a14.916,14.916,0,0,0,.119,2.726,6.313,6.313,0,0,0,5.324,5.01,23.976,23.976,0,0,0,2.548.067l9.774.014,29.494.07,8.019.04,2.085.022c.47.008.711.023.711.023s-.24.015-.711.023l-2.085.021-8.019.041-29.494.07-9.774.014A24.134,24.134,0,0,1,537,356.6a6.6,6.6,0,0,1-2.525-.885,6.675,6.675,0,0,1-3.108-4.4,15.053,15.053,0,0,1-.132-2.8q0-1.4,0-2.815,0-2.838-.005-5.764-.005-5.851-.009-12.032c0-8.234-.008-16.877-.013-25.837q0-6.72,0-13.667,0-3.471,0-6.991c.01-1.18-.024-2.335.023-3.545a6.618,6.618,0,0,1,1.227-3.411,6.7,6.7,0,0,1,4.35-2.712,16.9,16.9,0,0,1,2.559-.1h2.515l9.913,0,18.948.007h.089l.062.064,25.4,26.218.052.054v.074c-.032,18.756-.058,34.283-.076,45.133-.018,2.712.005,5.122-.045,7.232a6.514,6.514,0,0,1-2.412,4.646,6.421,6.421,0,0,1-3,1.339,4.834,4.834,0,0,1-.843.077c-.19.005-.286,0-.286,0" transform="translate(-84.852 -43.393)" fill="#263238"/>
          <path id="Path_44738" data-name="Path 44738" d="M603.633,298.113a2.131,2.131,0,0,1-.5.045l-1.428.04-5.253.069-7.792.045-4.607,0a6.251,6.251,0,0,1-5.771-4.356,7.228,7.228,0,0,1-.284-2.472c.005-1.595.009-3.134.013-4.6.018-2.919.034-5.557.047-7.793.029-2.174.053-3.953.07-5.252.017-.581.03-1.055.041-1.428a2.169,2.169,0,0,1,.044-.5,2.129,2.129,0,0,1,.044.5c.011.374.024.847.041,1.428.017,1.3.04,3.079.069,5.252.014,2.236.029,4.874.047,7.793,0,1.468.008,3.007.013,4.6a6.8,6.8,0,0,0,.271,2.341,5.838,5.838,0,0,0,5.368,4.058l4.595.022,7.792.049,5.253.07,1.428.042a2.169,2.169,0,0,1,.5.044" transform="translate(-92.327 -43.435)" fill="#263238"/>
          <path id="Path_44739" data-name="Path 44739" d="M571.9,293.292c0,.121-6.116.218-13.659.218s-13.66-.1-13.66-.218,6.115-.218,13.66-.218,13.659.1,13.659.218" transform="translate(-86.989 -46.815)" fill="#263238"/>
          <path id="Path_44740" data-name="Path 44740" d="M584.86,305.267c0,.121-9.018.218-20.139.218s-20.141-.1-20.141-.218,9.016-.218,20.141-.218,20.139.1,20.139.218" transform="translate(-86.989 -48.728)" fill="#263238"/>
          <path id="Path_44741" data-name="Path 44741" d="M584.86,317.241c0,.121-9.018.218-20.139.218s-20.141-.1-20.141-.218,9.016-.218,20.141-.218,20.139.1,20.139.218" transform="translate(-86.989 -50.64)" fill="#263238"/>
          <path id="Path_44742" data-name="Path 44742" d="M584.86,329.216c0,.121-9.018.218-20.139.218s-20.141-.1-20.141-.218S553.6,329,564.721,329s20.139.1,20.139.218" transform="translate(-86.989 -52.553)" fill="#263238"/>
          <path id="Path_44743" data-name="Path 44743" d="M584.86,341.191c0,.121-9.018.218-20.139.218s-20.141-.1-20.141-.218,9.016-.219,20.141-.219,20.139.1,20.139.219" transform="translate(-86.989 -54.466)" fill="#263238"/>
          <path id="Path_44744" data-name="Path 44744" d="M584.86,355.96c0,.121-9.018.218-20.139.218s-20.141-.1-20.141-.218,9.016-.218,20.141-.218,20.139.1,20.139.218" transform="translate(-86.989 -56.825)" fill="#263238"/>
          <path id="Path_44745" data-name="Path 44745" d="M558.079,352.245H521.195a3.547,3.547,0,0,1-3.548-3.547V336.032a3.547,3.547,0,0,1,3.548-3.547h36.884a3.547,3.547,0,0,1,3.547,3.547V348.7a3.547,3.547,0,0,1-3.547,3.548" transform="translate(-82.687 -53.11)" fill="#01abc1"/>
          <path id="Path_44746" data-name="Path 44746" d="M523.711,340.153H527.1c2.443,0,4.117,1.472,4.117,3.733s-1.675,3.734-4.117,3.734h-3.392Zm3.306,6.048a2.319,2.319,0,1,0,0-4.63h-1.579v4.63Z" transform="translate(-83.656 -54.335)" fill="#fff"/>
          <path id="Path_44747" data-name="Path 44747" d="M533.635,343.863a4.092,4.092,0,1,1,4.086,3.862,3.864,3.864,0,0,1-4.086-3.862m6.422,0a2.337,2.337,0,1,0-2.336,2.39,2.278,2.278,0,0,0,2.336-2.39" transform="translate(-85.241 -54.311)" fill="#fff"/>
          <path id="Path_44748" data-name="Path 44748" d="M544.348,343.863a4.111,4.111,0,0,1,7.125-2.538l-1.109,1.023a2.4,2.4,0,0,0-1.877-.875,2.39,2.39,0,1,0,0,4.779,2.381,2.381,0,0,0,1.877-.886l1.109,1.024a4.1,4.1,0,0,1-7.125-2.528" transform="translate(-86.952 -54.311)" fill="#fff"/>
          <path id="Path_44749" data-name="Path 44749" d="M558.574,347.62l-1.8-2.592L555,347.62h-1.984l2.763-3.8-2.624-3.669h1.963l1.718,2.422,1.685-2.422h1.867l-2.6,3.606,2.785,3.862Z" transform="translate(-88.337 -54.335)" fill="#fff"/>
        </g>
      </g>
      <g id="Group_172846" data-name="Group 172846">
        <g id="Group_172845" data-name="Group 172845" clip-path="url(#clip-path)">
          <path id="Path_44750" data-name="Path 44750" d="M561.063,401.878c0,.121-125.608.218-280.519.218C125.582,402.1,0,402,0,401.878s125.582-.218,280.545-.218c154.91,0,280.519.1,280.519.218" transform="translate(0 -64.16)" fill="#263238"/>
        </g>
      </g>
    </g>
  </g>
</svg>
